<?xml version="1.0" standalone="no"?>
<!DOCTYPE svg PUBLIC "-//W3C//DTD SVG 20010904//EN"
 "http://www.w3.org/TR/2001/REC-SVG-20010904/DTD/svg10.dtd">
<svg version="1.0" xmlns="http://www.w3.org/2000/svg"
 width="300.000000pt" height="564.000000pt" viewBox="0 0 300.000000 564.000000"
 preserveAspectRatio="xMidYMid meet">
<metadata>
Created by potrace 1.10, written by Peter Selinger 2001-2011
</metadata>
<g transform="translate(0.000000,564.000000) scale(0.100000,-0.100000)"
fill="#000000" stroke="none">
<path d="M1142 5457 c-13 -14 -37 -31 -53 -37 -16 -7 -29 -19 -29 -26 0 -17
31 -19 47 -3 15 15 33 3 33 -22 0 -26 18 -24 68 11 27 18 62 31 96 35 45 6 60
3 104 -19 61 -31 68 -32 74 -8 4 15 13 17 42 14 46 -5 52 23 6 33 -16 3 -41
16 -55 27 -19 15 -33 18 -53 12 -36 -10 -178 -10 -222 0 -30 7 -38 4 -58 -17z"/>
<path d="M1270 5391 c-14 -5 -42 -20 -63 -34 -21 -14 -41 -27 -45 -29 -8 -4
-52 -65 -52 -73 0 -14 31 -2 65 25 44 35 56 37 80 10 13 -14 31 -20 60 -20 27
0 51 7 68 20 32 25 33 25 73 -5 33 -25 68 -33 78 -17 3 5 -6 15 -19 22 -13 7
-29 26 -34 41 -6 18 -17 29 -28 29 -10 0 -33 9 -51 20 -33 20 -86 25 -132 11z
m114 -40 c7 -11 -22 -37 -51 -45 -13 -4 -35 -1 -53 9 -32 16 -38 30 -17 38 21
9 116 7 121 -2z"/>
<path d="M1393 5269 c-20 -20 -79 -27 -113 -13 -41 17 -99 3 -135 -34 -42 -42
-25 -72 21 -37 25 19 40 19 88 -4 71 -33 98 -35 140 -6 38 26 70 32 81 15 3
-5 15 -10 26 -10 14 0 19 7 19 25 0 15 -6 25 -14 25 -7 0 -19 7 -26 15 -7 8
-22 15 -34 15 -12 0 -26 5 -32 10 -7 7 -14 6 -21 -1z m-15 -61 c-6 -16 -34
-22 -56 -12 -14 6 -13 8 8 14 38 12 52 11 48 -2z"/>
<path d="M1939 5191 c-34 -34 -39 -45 -39 -84 0 -38 6 -52 33 -80 81 -87 217
-33 217 87 0 31 -7 45 -39 77 -34 34 -44 39 -86 39 -42 0 -52 -5 -86 -39z
m143 -31 c25 -26 29 -36 24 -63 -13 -66 -93 -91 -141 -42 -33 33 -32 70 4 106
39 38 74 38 113 -1z"/>
<path d="M1395 5154 c-23 -17 -95 -18 -128 -3 -29 13 -116 -9 -131 -34 -18
-28 6 -41 47 -26 31 11 38 10 69 -9 46 -29 107 -29 142 -1 23 18 35 20 75 15
38 -5 50 -3 54 8 8 19 -11 33 -65 50 -38 11 -48 11 -63 0z"/>
<path d="M1385 5050 c-6 -9 -30 -11 -91 -6 -69 5 -90 3 -129 -14 -34 -15 -46
-25 -43 -37 4 -20 19 -20 65 -2 29 12 35 11 56 -9 31 -30 112 -30 168 -1 34
17 46 18 71 10 43 -15 48 -14 48 13 0 21 -7 26 -47 36 -27 6 -58 14 -69 17
-12 2 -25 -1 -29 -7z"/>
<path d="M1200 4945 c-7 -8 -25 -15 -40 -15 -37 0 -57 -24 -39 -46 9 -11 23
-14 49 -10 20 3 52 -1 75 -9 57 -20 109 -18 157 6 25 13 49 18 64 15 28 -7 64
9 64 28 0 7 -24 21 -54 31 -51 17 -56 17 -89 2 -43 -21 -93 -21 -127 -2 -32
18 -45 18 -60 0z"/>
<path d="M1483 4834 c23 -28 22 -44 -5 -44 -30 0 -20 -6 25 -14 36 -7 38 -6
35 15 -2 14 -17 31 -38 43 l-35 20 18 -20z"/>
<path d="M1112 4818 c-13 -13 -17 -48 -4 -47 4 0 23 7 42 14 29 11 31 14 11
14 -16 1 -21 5 -17 16 7 18 -15 20 -32 3z"/>
<path d="M1170 4750 c-8 -15 -23 -20 -68 -22 -53 -3 -57 -5 -60 -29 -5 -41 16
-51 72 -31 l48 17 24 -29 c24 -27 30 -29 107 -30 71 -1 90 3 138 26 49 25 59
26 88 15 26 -10 36 -9 59 4 15 8 27 23 27 34 0 18 -6 20 -59 17 -49 -2 -63 1
-82 19 -21 20 -28 21 -63 11 -52 -16 -141 -14 -171 3 -34 19 -47 18 -60 -5z
m67 -31 c46 -18 58 -18 122 -5 35 7 66 9 75 4 18 -10 21 -28 5 -28 -6 0 -23
-9 -37 -21 -21 -16 -39 -20 -87 -18 -61 2 -87 10 -117 37 -14 11 -15 18 -7 29
14 16 11 16 46 2z"/>
<path d="M1356 4604 c-36 -10 -62 -10 -102 -3 -37 7 -60 7 -73 -1 -12 -6 -42
-8 -74 -4 -50 6 -55 5 -60 -15 -7 -30 32 -55 72 -46 16 3 38 2 48 -3 10 -6 52
-15 93 -21 82 -12 165 -4 201 21 18 11 31 12 61 4 35 -9 41 -8 65 16 22 23 24
29 13 42 -15 19 -71 21 -87 5 -9 -9 -18 -8 -37 5 -29 19 -52 19 -120 0z m100
-26 c2 -4 -6 -17 -18 -28 -21 -21 -30 -22 -115 -16 -105 7 -123 12 -123 33 0
10 6 12 20 8 29 -9 111 -7 145 4 34 10 84 10 91 -1z"/>
<path d="M1189 4480 c-14 -21 -32 -25 -89 -18 -22 3 -25 -1 -25 -27 0 -30 1
-30 55 -31 31 -1 86 -13 126 -28 66 -23 77 -25 128 -15 40 9 60 18 71 36 14
20 21 23 51 17 28 -5 40 -2 60 17 29 27 30 35 4 49 -16 8 -31 8 -57 -1 -32
-10 -38 -9 -49 6 -12 17 -18 17 -68 5 -50 -12 -107 -10 -169 5 -17 5 -28 0
-38 -15z m258 -23 c9 -7 5 -17 -19 -41 -28 -27 -38 -31 -87 -31 -62 1 -136 30
-136 55 0 12 15 15 75 15 41 0 82 3 90 7 40 17 49 17 77 -5z"/>
<path d="M1073 4344 c-12 -33 11 -49 65 -46 41 3 50 0 54 -15 3 -12 26 -25 67
-37 54 -17 70 -18 118 -8 31 6 66 21 78 32 16 15 35 20 72 20 61 0 80 16 57
48 -18 26 -55 28 -90 5 -22 -14 -27 -14 -34 -2 -7 11 -17 11 -55 1 -60 -16
-78 -15 -141 5 -45 14 -58 14 -78 4 -19 -11 -32 -11 -57 -2 -42 15 -48 14 -56
-5z m280 -28 c48 0 87 -2 87 -6 -1 -22 -71 -60 -111 -60 -17 0 -80 31 -106 52
-23 19 -15 31 15 22 15 -4 66 -8 115 -8z"/>
<path d="M1203 4220 c-5 -18 -12 -21 -62 -18 l-56 3 -3 -33 -3 -32 40 6 c45 7
71 -6 71 -37 0 -12 16 -25 46 -39 54 -23 57 -24 141 -9 55 10 66 15 79 40 12
24 21 29 52 29 21 0 47 7 59 15 19 14 21 19 11 41 -12 26 -19 27 -86 8 -18 -5
-24 -2 -29 16 -5 18 -11 21 -32 16 -72 -17 -148 -18 -179 -2 -40 20 -43 20
-49 -4z m87 -34 c14 -3 51 -2 82 3 49 6 61 5 78 -11 20 -19 20 -19 -10 -48
-35 -34 -102 -53 -152 -43 -33 6 -88 56 -88 79 0 17 30 34 50 30 8 -2 26 -7
40 -10z"/>
<path d="M1196 4029 c-21 -16 -35 -20 -61 -15 -29 6 -36 3 -51 -19 -23 -35 -4
-59 42 -50 27 5 38 1 64 -25 28 -28 36 -30 103 -30 68 0 147 19 175 42 6 6 28
8 47 5 28 -5 37 -2 46 14 16 30 4 49 -31 49 -17 0 -48 9 -70 20 -34 17 -48 19
-102 11 -47 -7 -71 -5 -97 5 -41 17 -33 18 -65 -7z m119 -31 c11 0 41 1 67 2
28 2 54 -3 68 -13 l22 -15 -31 -16 c-17 -9 -33 -16 -36 -16 -3 0 -18 -6 -34
-15 -53 -27 -169 -1 -185 42 -9 22 35 44 74 37 19 -3 44 -6 55 -6z"/>
<path d="M1375 3869 c-16 -5 -62 -7 -100 -4 -64 6 -73 4 -90 -15 -12 -14 -30
-21 -50 -20 -50 3 -55 1 -55 -25 0 -29 19 -41 82 -50 26 -4 54 -16 64 -26 13
-14 31 -19 74 -19 97 0 152 11 157 31 5 17 24 24 93 31 21 3 25 8 25 38 l0 35
-57 -3 c-49 -2 -59 1 -68 18 -12 22 -28 24 -75 9z m76 -50 l24 -19 -35 -30
c-25 -22 -45 -30 -75 -31 -22 0 -48 -2 -58 -4 -9 -2 -38 8 -63 21 -25 13 -52
24 -60 24 -19 0 -18 14 4 32 24 22 31 23 140 25 83 1 102 -2 123 -18z"/>
<path d="M1974 3731 c-11 -5 -33 -23 -47 -41 -81 -95 29 -235 146 -186 116 48
91 221 -34 232 -24 2 -53 0 -65 -5z m89 -36 c39 -16 47 -30 47 -85 0 -46 -35
-80 -84 -80 -107 0 -124 138 -21 172 11 3 21 6 21 7 1 1 17 -6 37 -14z"/>
<path d="M1203 3668 c-20 -20 -44 -31 -72 -35 -31 -4 -45 -12 -51 -27 -13 -36
-1 -46 55 -46 30 0 57 -5 61 -11 6 -10 30 -9 102 5 12 3 46 -1 74 -9 40 -10
58 -10 73 -2 11 6 43 14 70 17 44 4 50 8 53 29 5 31 -23 53 -54 45 -19 -5 -27
1 -45 30 l-21 36 -61 -6 c-34 -3 -70 -7 -80 -9 -10 -2 -31 0 -46 5 -24 7 -33
3 -58 -22z m247 -33 c51 -53 36 -60 -117 -58 -123 2 -163 8 -163 21 0 4 17 18
38 32 27 18 56 26 107 31 39 3 77 6 86 7 8 1 30 -14 49 -33z"/>
<path d="M1218 3509 c-18 -7 -28 -19 -30 -37 -2 -21 -12 -30 -48 -43 -44 -16
-62 -41 -43 -60 5 -5 22 -4 40 3 26 10 35 9 57 -5 21 -14 33 -15 68 -7 58 13
132 12 162 -1 21 -10 29 -8 51 9 21 17 31 19 46 11 25 -13 39 -4 39 26 0 20
-7 26 -40 35 -28 7 -44 19 -54 39 -11 21 -25 30 -53 35 -56 9 -164 6 -195 -5z
m227 -54 c27 -33 32 -54 13 -56 -7 -1 -51 -2 -98 -3 -47 -1 -97 -5 -111 -9
-19 -6 -31 -4 -42 8 -15 15 -15 18 0 43 30 49 42 54 131 50 78 -3 84 -5 107
-33z"/>
<path d="M1243 3330 c-13 -5 -48 -28 -78 -50 -45 -33 -55 -46 -55 -70 0 -33
19 -40 40 -15 20 24 56 15 52 -12 -4 -27 -4 -27 41 -8 46 19 114 19 160 0 38
-15 47 -12 47 18 0 16 5 18 28 12 15 -3 35 -13 44 -22 15 -13 18 -12 33 11 23
35 15 50 -34 65 -28 8 -45 20 -51 35 -5 13 -23 29 -41 35 -38 13 -154 14 -186
1z m170 -31 c14 -6 31 -22 38 -35 21 -39 -7 -51 -123 -52 -79 0 -102 3 -120
17 -27 22 -18 37 36 62 46 21 132 25 169 8z"/>
<path d="M1256 3155 c-49 -17 -54 -22 -64 -70 -6 -33 -15 -43 -45 -58 -29 -13
-37 -23 -37 -43 0 -22 3 -25 23 -20 16 4 26 -1 35 -14 12 -19 13 -19 59 6 51
27 38 27 266 11 32 -3 51 1 59 10 16 20 -1 45 -36 54 -38 11 -66 38 -66 64 0
29 -26 50 -75 64 -51 14 -71 13 -119 -4z m107 -26 c30 -8 42 -18 53 -46 8 -19
27 -46 42 -59 l27 -24 -90 6 c-74 4 -101 2 -148 -14 -68 -23 -83 -12 -49 35
11 15 22 38 26 49 11 35 44 58 91 63 6 0 27 -4 48 -10z"/>
<path d="M1249 2939 c-41 -18 -47 -25 -53 -59 -6 -36 -31 -66 -81 -96 -11 -6
-16 -17 -13 -26 8 -20 98 -17 150 6 51 22 145 21 179 -2 17 -11 46 -17 80 -17
72 0 78 23 18 75 -23 20 -48 52 -54 71 -22 66 -132 90 -226 48z m161 -24 c17
-9 31 -20 31 -25 1 -6 2 -13 3 -17 0 -5 10 -21 22 -38 11 -16 23 -35 27 -40 9
-16 -32 -16 -64 1 -37 19 -124 18 -183 -2 -26 -9 -49 -14 -52 -11 -3 3 10 34
28 68 27 51 39 65 63 70 53 12 95 9 125 -6z"/>
<path d="M1280 2745 c-83 -26 -90 -33 -90 -87 0 -52 1 -52 -72 -48 -32 1 -39
-2 -48 -25 -17 -44 -13 -48 30 -41 49 8 90 -1 90 -20 0 -17 3 -17 64 1 65 20
102 19 170 -5 l57 -19 9 25 c10 24 13 26 75 22 54 -2 65 0 65 13 0 26 -22 39
-70 40 -73 1 -85 9 -85 60 0 43 -1 44 -54 72 -61 30 -77 32 -141 12z m135 -39
c15 -10 26 -30 30 -55 3 -21 15 -47 26 -57 17 -16 18 -19 4 -34 -14 -16 -20
-16 -80 -2 -55 14 -75 14 -127 3 -74 -15 -91 -6 -65 38 10 17 17 33 16 38 -5
29 4 54 24 64 56 31 129 33 172 5z"/>
<path d="M1240 2489 c-60 -14 -73 -27 -66 -61 5 -26 3 -28 -26 -28 -17 0 -46
5 -64 12 -29 10 -36 9 -54 -7 -13 -12 -20 -28 -18 -44 3 -24 6 -25 78 -26 l75
0 3 -33 c3 -27 7 -32 20 -27 34 14 149 17 207 5 98 -20 100 -20 100 18 0 27 6
37 29 49 28 14 73 14 108 -2 22 -9 33 14 24 50 -6 24 -9 25 -59 19 -62 -7
-109 8 -105 33 2 11 -8 23 -27 32 -37 18 -165 24 -225 10z m186 -27 c27 -9 90
-82 78 -90 -6 -4 -20 -22 -33 -40 -16 -23 -28 -31 -40 -27 -9 4 -63 9 -121 12
-88 4 -109 9 -128 26 -22 20 -22 21 -3 41 10 12 22 31 25 43 5 14 20 25 44 31
42 11 147 13 178 4z"/>
<path d="M1171 2231 c-19 -17 -37 -21 -86 -21 -57 0 -64 -2 -81 -27 -10 -16
-16 -30 -13 -33 2 -3 29 -6 59 -6 30 -1 71 -5 91 -9 34 -6 36 -9 35 -43 -1
-34 1 -36 44 -50 25 -7 86 -14 135 -15 127 -1 162 19 144 82 -6 20 79 31 139
17 39 -9 43 7 11 48 -18 23 -27 26 -82 26 -47 0 -65 4 -82 20 -19 18 -40 22
-156 27 -127 5 -135 4 -158 -16z m313 -43 l34 -24 -24 -23 c-13 -13 -24 -34
-24 -47 0 -29 -29 -39 -120 -38 -90 1 -133 17 -151 57 -8 17 -27 38 -43 46
l-28 13 38 25 c37 23 45 24 161 19 107 -4 126 -8 157 -28z"/>
<path d="M1974 2240 c-38 -15 -74 -73 -74 -118 0 -52 48 -107 101 -117 73 -14
149 48 149 121 0 37 -36 94 -70 111 -29 14 -75 16 -106 3z m108 -48 c87 -78
-23 -204 -115 -132 -51 40 -39 121 20 147 43 18 60 16 95 -15z"/>
<path d="M1146 2009 c-11 -7 -38 -9 -65 -5 -40 5 -51 3 -66 -14 -28 -31 -14
-50 32 -40 29 7 47 5 80 -10 48 -21 50 -27 27 -71 -14 -28 -14 -32 2 -50 28
-31 115 -69 159 -69 63 0 137 26 169 59 26 27 28 33 21 80 l-7 50 34 6 c18 4
52 5 73 3 34 -3 40 0 43 18 2 11 -6 28 -16 37 -15 14 -25 16 -46 7 -36 -13
-83 -13 -88 1 -3 9 -9 9 -26 0 -12 -6 -70 -14 -130 -18 -90 -5 -115 -3 -142
11 -18 9 -34 16 -34 16 -1 0 -9 -5 -20 -11z m94 -46 c25 -2 90 0 144 6 55 5
103 8 108 5 4 -3 1 -15 -7 -27 -8 -12 -15 -43 -15 -69 0 -45 -2 -49 -40 -68
-78 -40 -164 -36 -223 10 -21 17 -24 26 -20 63 4 31 1 46 -11 56 -22 19 -21
45 2 36 9 -3 37 -9 62 -12z"/>
<path d="M1008 1814 c-33 -18 -33 -15 -8 -64 16 -32 28 -41 72 -55 69 -23 78
-31 78 -70 0 -27 9 -41 50 -78 60 -54 106 -71 168 -64 39 4 53 13 94 55 46 48
48 53 42 91 -6 37 -4 41 26 60 19 11 51 23 72 26 38 7 68 41 68 79 0 36 -75
48 -103 16 -9 -11 -27 -20 -39 -20 -13 0 -36 -13 -51 -29 -66 -67 -242 -69
-301 -2 -11 11 -28 21 -39 21 -10 0 -32 11 -49 25 -34 29 -43 30 -80 9z m99
-56 c150 -83 142 -80 223 -75 65 4 144 28 160 48 9 12 109 59 125 59 8 0 15
-4 15 -9 0 -13 -41 -41 -58 -41 -8 0 -28 -7 -46 -15 -34 -16 -56 -59 -56 -111
-1 -74 -102 -126 -184 -94 -44 16 -106 80 -106 109 0 14 -6 33 -13 42 -15 20
-82 59 -101 59 -20 0 -39 27 -32 45 7 20 7 20 73 -17z"/>
<path d="M244 1740 c-41 -16 -74 -68 -74 -117 0 -38 5 -50 33 -78 84 -84 217
-29 217 89 0 31 -7 45 -39 77 -32 32 -45 39 -77 38 -22 0 -48 -4 -60 -9z m107
-59 c36 -36 37 -73 4 -106 -49 -50 -145 -17 -145 50 0 35 50 85 85 85 16 0 38
-12 56 -29z"/>
<path d="M2334 1706 c-49 -22 -74 -61 -74 -118 0 -43 4 -54 34 -84 30 -30 40
-34 86 -34 46 0 56 4 86 34 30 30 34 41 34 84 0 58 -25 97 -76 118 -41 17 -50
17 -90 0z m101 -61 c73 -72 -28 -178 -109 -114 -20 16 -26 29 -26 59 0 72 84
106 135 55z"/>
<path d="M1004 1661 c-32 -20 -78 -71 -70 -79 3 -2 25 12 49 32 50 41 62 43
97 19 24 -17 50 -26 50 -17 0 5 -81 64 -89 64 -3 0 -20 -9 -37 -19z"/>
<path d="M1617 1666 c-3 -8 -24 -20 -46 -26 -30 -8 -41 -16 -41 -30 0 -17 5
-16 57 12 l57 30 21 -23 c11 -13 28 -30 38 -38 31 -24 20 10 -15 52 -34 39
-62 47 -71 23z"/>
<path d="M824 1598 c-16 -5 -59 -15 -96 -23 -85 -18 -187 -68 -226 -109 -60
-64 -67 -149 -24 -301 28 -97 30 -101 71 -124 27 -15 70 -27 120 -32 42 -5
119 -20 171 -34 136 -35 189 -39 220 -15 l25 19 -24 70 c-33 96 -54 128 -98
146 -21 9 -55 32 -75 53 -32 30 -38 43 -38 78 0 55 24 181 44 229 9 20 16 39
16 40 0 8 -61 10 -86 3z m10 -118 c-25 -118 -28 -174 -11 -207 18 -34 79 -90
126 -115 32 -18 65 -75 77 -136 5 -24 2 -31 -12 -34 -24 -5 -91 5 -217 31 -55
12 -109 21 -122 21 -37 0 -112 36 -129 62 -21 33 -56 165 -56 215 0 81 32 128
115 171 53 27 225 73 237 63 3 -3 0 -35 -8 -71z"/>
<path d="M1768 1603 c-22 -5 -22 -8 -4 -36 30 -48 51 -229 33 -282 -4 -11 -34
-41 -68 -65 -53 -39 -66 -56 -105 -134 -24 -49 -44 -97 -44 -106 0 -45 79 -47
242 -6 53 13 123 27 155 31 32 3 83 18 114 32 l57 26 28 101 c72 264 13 346
-311 426 -73 18 -78 19 -97 13z m142 -68 c137 -29 233 -92 246 -161 9 -51 -1
-138 -26 -217 -19 -60 -25 -69 -61 -88 -23 -11 -80 -27 -127 -35 -48 -8 -112
-21 -142 -29 -96 -23 -160 -26 -167 -9 -12 31 49 135 107 182 30 24 65 58 78
76 23 29 24 36 18 136 -3 58 -8 117 -12 133 -7 32 -8 32 86 12z"/>
<path d="M1127 1562 c7 -29 80 -92 106 -92 15 0 10 7 -19 26 -21 15 -51 40
-66 58 -24 27 -26 28 -21 8z"/>
<path d="M2615 1281 c-143 -66 -169 -260 -49 -359 142 -117 355 -21 354 160
-1 160 -162 265 -305 199z m160 -37 c116 -48 141 -206 47 -286 -73 -61 -178
-59 -240 5 -133 138 15 356 193 281z"/>
<path d="M1175 1236 c-19 -14 -17 -15 18 -9 30 4 37 2 37 -10 0 -10 -13 -20
-32 -25 -28 -8 -30 -11 -15 -17 27 -11 66 29 51 53 -15 23 -35 26 -59 8z"/>
<path d="M1495 1194 c-8 -13 -15 -13 -39 -4 -26 9 -27 9 -16 -5 7 -8 20 -15
30 -15 17 0 47 27 39 35 -3 2 -9 -3 -14 -11z"/>
<path d="M1181 1099 c-11 -19 -10 -24 8 -42 18 -19 23 -19 46 -7 30 16 33 45
6 60 -29 15 -45 12 -60 -11z m62 -30 c-14 -14 -55 -8 -61 9 -6 19 40 33 58 16
10 -10 11 -17 3 -25z"/>
<path d="M1110 986 c0 -18 28 -40 70 -56 37 -14 70 -38 70 -50 0 -5 -11 -11
-25 -14 -37 -9 -33 -44 8 -61 39 -16 46 -12 22 15 -14 16 -16 23 -7 32 18 18
14 53 -6 71 -10 10 -21 17 -25 17 -3 0 -29 13 -57 30 -33 19 -50 25 -50 16z"/>
<path d="M635 963 c4 -16 10 -53 14 -83 7 -54 36 -111 87 -173 13 -15 31 -52
41 -83 17 -54 45 -95 74 -107 11 -5 11 -8 -3 -17 -10 -6 -18 -22 -18 -34 0
-30 65 -158 95 -186 l22 -21 25 38 c42 64 59 101 48 108 -20 12 -50 85 -50
120 0 30 11 66 26 83 1 2 20 -8 41 -22 20 -14 41 -26 45 -26 5 0 8 23 8 50 0
66 -28 121 -96 187 -48 46 -54 57 -54 92 0 40 0 41 -52 56 -78 22 -195 45
-230 45 -28 0 -30 -2 -23 -27z m135 -24 c118 -27 119 -27 130 -71 7 -25 30
-61 59 -92 61 -66 81 -95 81 -122 0 -17 -5 -20 -23 -17 -16 3 -34 -4 -52 -19
-42 -36 -46 -115 -11 -181 24 -45 25 -50 11 -77 -21 -40 -38 -30 -69 40 -21
47 -24 63 -16 85 11 29 10 33 -31 85 -15 19 -32 51 -38 71 -6 19 -35 71 -63
114 -44 68 -53 88 -56 137 -5 66 -4 66 78 47z"/>
<path d="M1882 970 c-141 -29 -162 -37 -162 -66 0 -36 -22 -73 -70 -119 -58
-55 -80 -103 -80 -170 0 -30 2 -55 6 -55 3 0 22 11 42 25 34 23 38 24 50 8 22
-30 15 -116 -13 -157 -14 -20 -25 -40 -25 -43 0 -11 74 -133 80 -133 8 0 72
94 94 137 21 42 21 103 1 103 -23 0 -18 16 10 28 24 11 57 65 69 114 3 15 31
61 61 104 50 69 61 94 56 131 -1 7 5 35 13 63 l15 50 -27 -1 c-15 0 -69 -9
-120 -19z m79 -80 c-2 -46 -11 -66 -52 -127 -27 -39 -57 -95 -68 -124 -11 -28
-30 -63 -43 -76 -18 -20 -23 -36 -23 -82 -1 -100 -72 -190 -91 -115 -4 14 2
41 15 67 31 63 29 136 -5 176 -18 22 -35 31 -55 31 -16 0 -29 5 -29 10 0 22
32 71 84 129 29 33 57 75 62 93 9 31 14 34 94 55 115 30 116 29 111 -37z"/>
<path d="M1505 959 c-16 -10 -37 -19 -45 -19 -8 0 -21 -9 -28 -21 -12 -18 -11
-19 7 -10 11 6 31 11 45 11 26 0 66 31 66 50 0 14 -10 12 -45 -11z"/>
<path d="M1432 861 c2 -10 -6 -28 -16 -40 -26 -29 -15 -35 23 -14 23 13 31 25
31 46 0 21 -5 27 -21 27 -14 0 -19 -5 -17 -19z"/>
<path d="M1242 758 c-19 -19 -14 -36 13 -54 15 -10 25 -26 25 -40 0 -14 7 -27
15 -31 9 -3 15 -13 13 -22 -7 -41 36 -57 46 -16 3 13 15 29 26 35 15 8 18 17
14 38 -5 23 -1 30 20 40 32 14 33 26 4 46 -27 20 -158 22 -176 4z m113 -60
c-11 -51 -17 -53 -36 -17 -24 46 -24 49 12 49 29 0 30 -1 24 -32z"/>
<path d="M574 716 c-77 -35 -101 -136 -46 -197 24 -27 37 -33 84 -37 50 -4 58
-2 91 28 46 40 56 85 31 136 -34 67 -101 97 -160 70z m106 -58 c48 -52 10
-138 -61 -138 -40 0 -79 39 -79 80 0 69 94 108 140 58z"/>
<path d="M1985 716 c-45 -20 -67 -50 -72 -99 -10 -82 42 -137 128 -137 35 0
48 6 80 39 43 43 49 77 25 136 -25 60 -101 89 -161 61z m95 -46 c28 -15 43
-67 27 -98 -26 -56 -94 -66 -137 -20 -60 65 29 161 110 118z"/>
<path d="M1529 624 c-20 -24 -88 -54 -126 -54 -58 0 -63 -6 -63 -77 0 -64 1
-66 51 -124 59 -68 100 -96 172 -115 56 -15 127 -19 127 -6 -1 4 -11 20 -25
36 -19 24 -23 26 -22 10 2 -16 -4 -19 -38 -16 -76 6 -168 66 -219 145 -21 31
-28 94 -13 104 7 5 35 13 62 19 28 6 59 15 70 19 20 8 20 8 0 -14 -15 -17 -20
-37 -19 -77 0 -65 20 -90 81 -106 24 -5 43 -14 43 -19 0 -5 4 -9 10 -9 24 0
-14 48 -43 54 -48 10 -67 33 -67 83 0 36 4 45 24 54 21 10 23 16 18 57 -6 57
-6 57 -23 36z"/>
<path d="M1107 587 c-5 -35 -2 -44 20 -65 21 -19 24 -29 20 -59 -8 -47 -23
-62 -67 -69 -26 -4 -40 -12 -43 -25 -3 -11 -2 -19 3 -19 18 0 87 34 108 53 30
28 31 103 1 141 -16 21 -17 26 -5 26 8 0 17 -4 20 -9 3 -5 27 -12 52 -16 70
-10 74 -13 74 -54 -1 -44 -51 -117 -112 -161 -55 -40 -143 -67 -164 -49 -11 9
-18 8 -34 -6 -34 -31 -24 -38 45 -32 93 9 152 38 225 112 62 63 64 66 68 125
3 37 0 66 -6 72 -6 6 -37 15 -68 19 -32 4 -72 18 -94 33 l-38 25 -5 -42z"/>
</g>
</svg>
