<?xml version="1.0" standalone="no"?>
<!DOCTYPE svg PUBLIC "-//W3C//DTD SVG 20010904//EN"
 "http://www.w3.org/TR/2001/REC-SVG-20010904/DTD/svg10.dtd">
<svg version="1.0" xmlns="http://www.w3.org/2000/svg"
 width="300.000000pt" height="828.000000pt" viewBox="0 0 300.000000 828.000000"
 preserveAspectRatio="xMidYMid meet">
<metadata>
Created by potrace 1.10, written by Peter Selinger 2001-2011
</metadata>
<g transform="translate(0.000000,828.000000) scale(0.100000,-0.100000)"
fill="#000000" stroke="none">
<path d="M509 7920 c-22 -11 -48 -39 -64 -66 -23 -40 -27 -54 -22 -95 11 -94
86 -155 179 -147 155 15 203 207 76 301 -39 29 -123 33 -169 7z m149 -47 c26
-16 52 -69 52 -105 0 -35 -36 -87 -74 -104 -100 -48 -210 64 -159 162 36 69
116 90 181 47z"/>
<path d="M2580 7725 c-58 -18 -125 -40 -150 -50 -70 -25 -193 -40 -335 -39
-105 1 -150 6 -236 27 -175 44 -255 32 -294 -43 -18 -34 -14 -59 14 -84 24
-22 45 -12 70 30 20 33 23 34 58 28 21 -3 92 -24 158 -46 119 -40 122 -41 306
-46 178 -5 189 -4 280 22 52 14 138 35 191 45 103 21 163 44 172 67 8 20 -7
54 -39 92 -34 41 -59 41 -195 -3z m174 -34 c15 -17 15 -19 -1 -40 -14 -16 -47
-27 -138 -46 -66 -13 -147 -33 -180 -44 -53 -18 -82 -20 -260 -17 l-200 2
-100 42 c-55 23 -113 42 -128 42 -16 0 -26 4 -22 9 6 10 30 7 115 -14 117 -29
197 -37 305 -32 61 2 121 7 135 10 14 3 47 8 74 12 28 4 86 19 130 35 192 66
241 73 270 41z"/>
<path d="M986 7508 c-66 -36 -78 -51 -99 -125 -15 -49 -14 -54 3 -76 16 -19
32 -25 85 -30 96 -9 145 -40 219 -137 71 -93 96 -137 130 -228 30 -82 33 -86
89 -121 65 -40 65 -39 162 -245 36 -77 89 -171 118 -210 105 -139 147 -226
147 -301 l0 -53 78 -72 c94 -87 144 -123 197 -140 22 -7 44 -16 50 -21 5 -5
19 -9 31 -9 19 0 24 8 32 48 33 154 39 376 13 495 -5 23 -12 85 -16 137 -10
149 -25 299 -37 365 -6 33 -12 159 -13 280 -2 201 -9 270 -36 376 -9 36 -10
37 -73 43 -72 8 -205 -20 -334 -70 -72 -28 -72 -29 -89 -81 -20 -63 -39 -68
-48 -13 -5 29 -16 47 -38 64 -36 28 -177 86 -207 86 -11 0 -43 -22 -71 -50
-32 -31 -60 -50 -75 -50 -33 0 -91 54 -99 93 -9 40 -32 77 -48 77 -6 0 -38
-15 -71 -32z m78 -53 c8 -32 61 -92 99 -111 43 -23 86 -11 132 36 45 46 66 49
142 21 62 -23 113 -57 113 -77 0 -7 13 -28 28 -45 37 -42 64 -33 97 31 23 45
29 49 97 73 185 66 287 83 316 53 28 -28 42 -128 42 -311 0 -114 7 -241 20
-345 10 -91 24 -229 30 -308 6 -78 15 -168 20 -200 13 -76 13 -346 0 -413 -6
-29 -16 -56 -22 -60 -29 -18 -150 58 -260 164 -24 23 -38 60 -38 99 0 44 -68
179 -135 268 -31 41 -84 131 -117 200 -117 245 -122 251 -195 298 -47 29 -54
41 -83 125 -33 100 -171 274 -256 323 -25 15 -66 28 -99 31 -70 7 -83 27 -62
88 24 71 118 114 131 60z"/>
<path d="M858 7225 c-21 -14 -49 -46 -64 -70 -14 -25 -40 -53 -58 -62 -63 -31
-66 -38 -66 -135 l0 -89 44 -62 c89 -127 104 -179 167 -612 22 -154 56 -363
74 -465 19 -102 48 -277 65 -390 16 -113 37 -232 45 -265 22 -88 30 -276 16
-375 -14 -94 -39 -156 -111 -275 -35 -59 -50 -93 -50 -119 0 -44 21 -48 59
-12 34 32 110 36 208 12 61 -16 86 -17 166 -9 148 16 158 14 186 -29 17 -26
32 -38 47 -38 31 0 59 43 59 90 0 39 -1 40 -115 180 -123 151 -192 354 -269
790 -97 550 -178 1071 -186 1195 -7 104 12 286 34 335 6 14 27 47 46 73 19 27
42 72 50 99 17 59 11 79 -53 162 -50 67 -108 95 -192 96 -54 0 -72 -5 -102
-25z m192 -27 c47 -24 106 -92 116 -134 11 -41 -5 -89 -51 -160 -25 -38 -50
-84 -56 -104 -6 -19 -13 -118 -16 -220 -5 -199 -4 -208 77 -700 17 -102 37
-228 45 -280 30 -191 108 -589 140 -715 30 -115 93 -269 136 -331 18 -27 61
-84 96 -127 45 -56 63 -86 63 -107 0 -40 -15 -46 -42 -14 -35 40 -55 43 -182
32 -100 -9 -127 -8 -191 7 -50 12 -96 16 -139 13 -76 -6 -76 -12 -2 116 66
116 87 215 83 393 -3 80 -11 165 -20 203 -19 74 -40 202 -62 374 -9 65 -27
171 -40 235 -23 107 -39 207 -110 686 -41 273 -61 336 -140 451 -42 62 -45 71
-45 132 0 65 0 65 48 111 27 25 63 65 80 87 57 75 131 93 212 52z"/>
<path d="M473 5764 c-54 -20 -128 -86 -155 -138 -14 -27 -23 -66 -26 -116 -4
-64 -1 -83 19 -125 73 -157 252 -219 399 -139 46 25 62 40 113 104 20 24 37
93 37 147 0 106 -59 202 -154 250 -64 33 -170 40 -233 17z m215 -56 c25 -12
60 -42 82 -69 108 -137 30 -343 -146 -379 -115 -24 -216 25 -271 133 -32 63
-29 148 6 218 57 113 204 157 329 97z"/>
<path d="M535 4364 c-66 -22 -115 -88 -115 -153 0 -45 37 -114 75 -140 46 -31
130 -32 179 -2 98 61 104 203 10 274 -35 26 -105 36 -149 21z m129 -65 c59
-51 61 -123 5 -178 -63 -63 -173 -31 -200 58 -33 111 107 198 195 120z"/>
<path d="M1013 4280 c-34 -21 -47 -49 -41 -96 3 -28 5 -29 66 -32 90 -4 97
-17 88 -171 -6 -104 -5 -124 13 -172 37 -100 40 -142 42 -555 1 -225 6 -456
11 -514 6 -58 11 -224 11 -370 2 -253 1 -268 -20 -324 -13 -33 -23 -63 -23
-68 0 -5 16 -16 35 -24 19 -8 42 -25 51 -39 34 -52 54 -27 54 68 0 34 5 103
11 152 6 53 12 372 14 775 2 384 8 725 14 775 9 83 16 102 86 240 65 129 77
161 87 232 16 118 18 117 -152 108 -122 -6 -141 -5 -197 14 -77 26 -109 26
-150 1z m138 -37 c28 -15 60 -18 174 -18 l140 0 -1 -67 c-1 -63 -5 -77 -66
-196 -36 -70 -74 -152 -83 -182 -23 -73 -34 -459 -30 -1054 3 -336 0 -459 -11
-530 -7 -50 -14 -119 -14 -153 0 -68 -9 -82 -34 -54 -15 17 -15 21 1 62 22 60
29 316 13 535 -7 93 -15 387 -19 654 l-7 485 -27 68 c-25 64 -27 78 -25 199
l2 131 -37 33 c-27 25 -46 34 -71 34 -43 0 -52 14 -32 45 20 31 76 34 127 8z"/>
<path d="M962 4105 c-39 -32 -39 -44 -7 -130 20 -51 26 -87 26 -146 0 -44 -2
-82 -4 -86 -8 -14 -66 -301 -97 -488 -38 -221 -49 -409 -49 -805 -1 -168 -6
-367 -13 -443 -13 -148 -8 -174 35 -201 14 -9 24 -4 57 35 40 47 102 81 172
94 62 12 65 25 25 113 -66 144 -66 148 -97 587 -18 259 -14 342 25 548 39 205
40 218 24 279 -11 39 -9 50 19 118 40 97 47 157 28 245 -12 58 -13 86 -4 163
11 87 10 94 -8 112 -10 11 -37 22 -60 26 -34 5 -45 2 -72 -21z m88 -25 c12 -7
15 -36 16 -137 1 -70 2 -162 3 -204 1 -62 -4 -88 -25 -135 -24 -54 -26 -66
-19 -145 5 -74 2 -109 -25 -245 -41 -201 -46 -303 -31 -584 20 -366 32 -447
91 -574 16 -37 30 -68 30 -70 0 -2 -33 -16 -73 -31 -42 -15 -89 -41 -111 -61
-20 -19 -42 -34 -47 -34 -7 0 -9 24 -5 68 3 37 10 292 15 567 5 277 14 533 21
575 18 118 68 395 90 505 49 242 51 256 39 319 -6 33 -17 72 -25 88 -35 67 2
132 56 98z"/>
<path d="M535 1957 c-56 -22 -73 -37 -94 -80 -28 -57 -26 -101 4 -154 49 -82
153 -108 232 -57 54 36 73 70 73 137 0 69 -38 126 -99 151 -48 18 -74 19 -116
3z m115 -52 c66 -34 78 -132 23 -187 -79 -79 -224 -13 -208 95 3 21 10 46 17
56 30 48 111 65 168 36z"/>
<path d="M1108 1903 c-13 -3 -15 -12 -11 -41 7 -41 23 -62 48 -62 24 0 95 43
95 57 0 24 -91 56 -132 46z"/>
<path d="M1010 1852 c-30 -15 -56 -34 -58 -43 -3 -18 76 -101 89 -93 5 3 9 16
9 30 0 14 6 35 14 47 18 27 25 79 11 83 -5 1 -35 -9 -65 -24z"/>
<path d="M1218 1812 l-28 -18 54 -47 c101 -87 144 -45 53 51 -36 37 -42 38
-79 14z"/>
<path d="M1085 1790 c-11 -17 -18 -116 -11 -145 5 -20 12 -26 29 -23 29 4 47
42 47 99 0 39 -4 49 -25 63 -29 19 -32 19 -40 6z"/>
<path d="M876 1771 c-28 -31 -16 -63 32 -89 41 -23 44 -23 63 -7 27 26 24 43
-17 81 -41 39 -54 42 -78 15z"/>
<path d="M1176 1728 c7 -60 17 -74 57 -83 25 -7 27 -5 27 25 0 24 -10 41 -40
71 -21 21 -42 39 -45 39 -3 0 -3 -24 1 -52z"/>
<path d="M787 1692 c-10 -10 -17 -27 -17 -38 0 -21 -17 -49 -56 -91 -13 -15
-50 -63 -80 -109 -56 -81 -56 -82 -39 -108 11 -17 26 -26 43 -26 14 0 33 -7
43 -16 25 -23 39 -9 39 39 0 37 8 53 63 122 35 44 83 94 105 110 63 46 66 84
6 85 -11 0 -31 11 -44 25 -28 30 -41 31 -63 7z m63 -57 l28 -15 -77 -77 c-49
-49 -88 -99 -105 -135 -30 -61 -37 -66 -55 -44 -9 11 2 32 54 102 36 49 78
110 93 136 15 26 28 48 30 48 2 0 16 -7 32 -15z"/>
<path d="M998 1675 c-13 -29 -11 -32 22 -37 28 -4 40 23 20 47 -18 21 -29 18
-42 -10z"/>
<path d="M1325 1683 c-39 -10 -65 -53 -31 -53 16 0 66 38 66 51 0 9 -3 10 -35
2z"/>
<path d="M1359 1643 c-8 -9 -26 -21 -41 -27 l-26 -12 34 -54 c19 -30 48 -90
65 -134 25 -65 29 -84 20 -103 -24 -52 -8 -93 35 -93 53 0 79 82 46 141 -31
52 -53 127 -62 208 -8 70 -18 90 -46 91 -6 0 -18 -7 -25 -17z m25 -59 c3 -9 6
-23 6 -32 -1 -14 -5 -12 -20 7 -11 12 -17 27 -14 32 8 14 21 11 28 -7z"/>
<path d="M960 1630 c0 -6 -11 -26 -24 -43 -22 -30 -23 -39 -20 -153 4 -107 1
-132 -21 -208 -40 -137 -36 -146 53 -146 72 0 77 6 66 87 -5 37 -9 127 -9 198
1 122 2 133 28 182 33 65 34 75 3 67 -15 -3 -34 1 -50 11 -17 11 -26 13 -26 5z
m40 -60 c0 -6 -7 -25 -16 -42 -14 -26 -18 -29 -25 -16 -12 21 6 68 26 68 8 0
15 -5 15 -10z m-30 -375 c13 -62 4 -85 -33 -85 -17 0 -19 5 -14 43 5 42 22 97
31 97 3 0 10 -25 16 -55z"/>
<path d="M1175 1618 c4 -13 18 -45 31 -73 14 -27 32 -90 41 -139 14 -76 14
-98 3 -152 -16 -82 -11 -94 39 -94 68 0 79 52 38 182 -15 48 -32 120 -36 161
-5 41 -11 80 -15 85 -6 10 -86 52 -100 52 -4 0 -4 -10 -1 -22z"/>
<path d="M1135 1616 c-11 -9 -27 -16 -37 -16 -22 0 -37 -48 -26 -85 5 -16 11
-75 15 -131 5 -80 2 -111 -11 -152 -20 -59 -14 -89 19 -104 37 -17 73 -2 89
37 12 29 12 40 1 80 -25 81 -38 210 -27 262 6 26 7 65 4 86 -7 36 -8 37 -27
23z m9 -382 c10 -26 7 -51 -8 -63 -20 -17 -29 2 -22 45 7 36 20 44 30 18z"/>
<path d="M561 1322 c-6 -11 -11 -38 -11 -60 0 -24 -12 -62 -30 -98 -39 -77
-38 -84 9 -84 22 0 46 -3 55 -6 12 -5 16 0 16 19 0 41 19 80 56 113 19 18 34
41 34 52 0 26 -24 45 -49 37 -13 -4 -27 2 -44 21 -25 26 -25 26 -36 6z m69
-69 c0 -9 -32 -43 -40 -43 -4 0 -5 11 -2 25 3 16 11 25 23 25 11 0 19 -3 19
-7z"/>
<path d="M1480 1210 c-8 -5 -30 -10 -47 -10 -37 0 -40 -8 -18 -50 17 -33 24
-146 11 -172 -7 -16 -3 -18 36 -18 l45 0 1 130 c0 72 -2 130 -6 130 -4 0 -14
-5 -22 -10z"/>
<path d="M1317 1139 c-10 -6 -31 -7 -47 -4 -28 6 -30 5 -30 -25 0 -17 6 -41
14 -53 16 -25 23 -144 11 -194 l-7 -32 48 3 49 2 0 157 c0 98 -4 157 -10 157
-5 0 -18 -5 -28 -11z"/>
<path d="M1167 1109 c-10 -6 -37 -9 -60 -7 -48 4 -51 -5 -22 -82 17 -45 18
-197 2 -231 -7 -13 1 -15 50 -14 55 1 58 2 56 25 -15 187 -15 206 1 253 21 62
13 79 -27 56z m-21 -65 c-5 -13 -10 -14 -18 -6 -6 6 -8 18 -4 28 5 13 10 14
18 6 6 -6 8 -18 4 -28z"/>
<path d="M496 1025 c4 -25 1 -43 -11 -61 -23 -35 -13 -76 18 -72 16 2 26 15
38 50 8 26 23 56 33 67 29 32 14 51 -39 51 l-46 0 7 -35z"/>
<path d="M884 1023 c13 -73 18 -231 8 -250 -16 -29 -2 -38 57 -39 l53 -1 -7
36 c-11 52 -7 137 9 201 8 30 16 62 18 70 2 12 -11 16 -71 18 l-73 3 6 -38z
m79 -28 c-1 -16 -5 -36 -9 -44 -5 -13 -8 -11 -14 9 -15 46 -12 72 8 68 12 -3
16 -12 15 -33z"/>
<path d="M1436 918 c4 -13 7 -49 7 -80 -1 -54 1 -58 23 -58 29 0 30 2 38 88
l7 72 -42 0 c-39 0 -41 -1 -33 -22z"/>
<path d="M1266 801 c-3 -5 1 -22 9 -37 17 -33 20 -100 5 -109 -21 -13 -8 -25
28 -25 l38 0 10 86 c5 47 7 87 5 90 -8 8 -90 4 -95 -5z"/>
<path d="M1464 762 c-19 -3 -21 -8 -17 -55 6 -75 10 -84 28 -66 12 13 25 114
14 122 -2 1 -13 1 -25 -1z"/>
<path d="M1101 751 c-11 -7 -11 -24 -1 -100 10 -69 10 -98 1 -117 -16 -36 -16
-35 37 -32 l47 3 -3 50 c-2 28 1 79 7 115 10 57 9 67 -6 78 -19 14 -62 16 -82
3z"/>
<path d="M894 709 c-2 -4 1 -29 7 -54 6 -25 9 -67 6 -93 l-5 -47 39 1 c49 1
50 3 41 39 -5 18 -3 52 5 85 11 49 11 56 -4 67 -17 13 -81 15 -89 2z"/>
<path d="M1303 612 c-25 -4 -28 -14 -13 -42 7 -12 7 -27 0 -45 -11 -30 2 -65
25 -65 16 0 21 16 30 96 6 55 0 63 -42 56z"/>
<path d="M365 531 c-149 -93 -82 -311 93 -304 53 2 115 40 138 85 22 43 15
134 -14 175 -43 61 -154 84 -217 44z m141 -37 c83 -39 85 -167 4 -209 -60 -31
-134 -15 -164 37 -66 111 43 228 160 172z"/>
<path d="M900 497 c0 -2 9 -14 20 -27 15 -17 18 -31 14 -59 -7 -41 12 -66 40
-55 17 7 21 55 10 113 -6 28 -10 31 -45 31 -22 0 -39 -2 -39 -3z"/>
<path d="M1104 476 c-3 -8 2 -29 13 -46 15 -26 15 -32 4 -39 -17 -11 -7 -59
15 -68 26 -10 38 14 41 82 2 62 1 66 -23 75 -34 13 -44 13 -50 -4z"/>
</g>
</svg>
