<?xml version="1.0" standalone="no"?>
<!DOCTYPE svg PUBLIC "-//W3C//DTD SVG 20010904//EN"
 "http://www.w3.org/TR/2001/REC-SVG-20010904/DTD/svg10.dtd">
<svg version="1.0" xmlns="http://www.w3.org/2000/svg"
 width="300.000000pt" height="769.000000pt" viewBox="0 0 300.000000 769.000000"
 preserveAspectRatio="xMidYMid meet">
<metadata>
Created by potrace 1.10, written by Peter Selinger 2001-2011
</metadata>
<g transform="translate(0.000000,769.000000) scale(0.100000,-0.100000)"
fill="#000000" stroke="none">
<path d="M2078 7310 c-78 -42 -105 -156 -52 -220 51 -60 125 -77 194 -42 107
53 104 209 -5 262 -51 25 -89 25 -137 0z m150 -65 c36 -38 40 -70 17 -115 -17
-32 -61 -60 -95 -60 -29 0 -76 26 -94 52 -9 12 -16 40 -16 61 0 30 7 45 30 67
52 49 109 47 158 -5z"/>
<path d="M160 7148 c-27 -29 -52 -86 -44 -99 11 -19 86 -47 154 -58 36 -7 107
-23 159 -37 89 -25 102 -26 280 -21 181 4 189 5 286 40 152 53 162 54 186 12
23 -39 47 -44 72 -17 21 23 21 35 2 72 -34 65 -116 76 -280 36 -55 -14 -128
-27 -163 -31 -85 -10 -269 18 -397 60 -55 18 -131 40 -168 48 -66 15 -68 15
-87 -5z m114 -44 c33 -8 99 -28 146 -43 88 -29 265 -61 335 -61 22 0 83 7 135
15 52 8 96 13 98 11 1 -2 -28 -16 -65 -31 -66 -28 -73 -28 -233 -26 -91 1
-181 6 -200 11 -152 38 -203 51 -255 62 -62 14 -79 34 -55 63 15 19 18 19 94
-1z"/>
<path d="M1692 6943 c-6 -10 -13 -33 -17 -50 -8 -38 -57 -83 -91 -83 -15 0
-40 17 -68 45 -25 25 -53 45 -63 45 -21 0 -109 -33 -164 -60 -43 -22 -59 -46
-59 -85 0 -41 -32 -28 -45 17 -13 49 -18 52 -99 83 -150 56 -316 76 -345 41
-23 -29 -41 -175 -40 -331 1 -88 -4 -198 -10 -245 -63 -486 -76 -905 -30 -993
9 -16 12 -16 39 -2 16 8 35 15 43 15 21 0 122 70 191 133 55 49 59 57 66 110
11 77 45 146 134 272 42 59 76 111 76 115 0 5 29 68 64 142 63 129 66 134 120
166 46 27 57 40 71 80 34 96 51 129 99 197 94 134 124 155 225 164 53 5 67 10
83 31 17 24 17 28 2 80 -18 64 -23 70 -88 104 -57 30 -82 33 -94 9z m102 -65
c29 -26 37 -41 39 -72 l2 -40 -62 -12 c-85 -18 -111 -33 -172 -100 -80 -87
-139 -175 -153 -229 -13 -48 -30 -70 -121 -150 -23 -21 -57 -78 -109 -185 -41
-85 -102 -193 -135 -240 -74 -103 -111 -181 -119 -247 -1 -11 -5 -30 -8 -41
-15 -45 -184 -177 -236 -184 -40 -5 -49 40 -46 242 2 176 10 276 48 605 14
119 20 234 19 340 -1 163 10 252 35 293 20 31 60 29 191 -9 132 -38 158 -51
178 -88 8 -16 27 -39 42 -51 l28 -22 25 31 c14 16 35 43 48 60 23 30 112 71
154 71 11 0 40 -18 64 -40 47 -43 77 -50 123 -25 32 16 81 70 81 89 0 15 20
36 35 36 7 0 28 -15 49 -32z"/>
<path d="M1720 6684 c-47 -20 -75 -48 -117 -117 l-35 -57 17 -51 c9 -27 32
-70 51 -95 54 -70 67 -145 61 -349 -3 -119 -13 -217 -31 -325 -29 -168 -62
-371 -72 -435 -37 -258 -124 -678 -169 -812 -41 -122 -77 -185 -170 -298 -36
-44 -68 -90 -71 -102 -21 -80 65 -143 97 -70 l14 32 137 -3 c110 -3 148 0 189
13 70 24 142 15 180 -21 15 -14 32 -23 38 -20 23 15 9 61 -48 159 -81 142 -93
179 -99 328 -4 109 -1 143 22 255 14 71 35 197 46 279 11 83 31 204 44 270 14
66 48 272 76 457 67 442 68 448 157 577 l44 64 -7 76 c-7 84 -12 94 -54 111
-16 7 -43 34 -61 61 -45 71 -75 89 -146 89 -32 -1 -74 -8 -93 -16z m136 -30
c19 -9 44 -31 55 -48 12 -17 43 -51 70 -76 47 -44 49 -47 50 -106 2 -57 -1
-65 -44 -127 -42 -62 -79 -151 -92 -222 -14 -78 -47 -291 -75 -478 -17 -113
-41 -259 -55 -325 -13 -66 -33 -189 -45 -273 -11 -85 -32 -210 -47 -278 -22
-109 -25 -140 -20 -255 6 -151 18 -200 82 -315 25 -45 45 -83 45 -85 0 -8
-195 -20 -332 -20 -135 -1 -148 -3 -177 -23 -38 -29 -41 -29 -41 0 0 14 31 64
76 123 42 54 91 129 110 165 76 151 140 446 263 1214 60 375 64 415 59 580 -6
167 -15 202 -71 283 -20 29 -39 69 -43 88 -11 62 37 140 111 178 39 20 78 20
121 0z"/>
<path d="M2105 5351 c-85 -21 -151 -77 -188 -160 -41 -93 -4 -236 76 -293 17
-12 38 -28 45 -35 17 -17 94 -27 163 -20 94 8 183 83 209 176 39 142 -34 280
-172 324 -58 18 -84 20 -133 8z m143 -56 c51 -22 110 -82 122 -125 45 -160
-63 -298 -226 -288 -110 7 -190 83 -201 190 -14 133 81 237 215 238 29 0 69
-7 90 -15z"/>
<path d="M2073 4049 c-100 -64 -97 -206 7 -260 97 -52 220 18 220 125 0 117
-133 196 -227 135z m142 -45 c14 -9 30 -34 37 -55 24 -82 -50 -155 -132 -130
-46 14 -69 39 -76 83 -16 95 88 157 171 102z"/>
<path d="M1629 3986 c-40 -20 -95 -25 -189 -14 -60 7 -94 6 -114 -2 -29 -10
-29 -11 -23 -73 8 -81 30 -145 78 -228 81 -140 80 -136 91 -509 5 -184 8 -490
6 -680 -3 -362 12 -658 35 -672 20 -13 27 -9 37 16 5 13 22 28 39 34 37 13 39
31 11 120 -25 80 -27 265 -5 557 9 121 15 340 15 557 0 352 0 358 25 436 21
68 24 94 22 196 -2 138 2 146 91 146 l55 0 -6 47 c-7 61 -32 83 -96 83 -25 0
-58 -6 -72 -14z m102 -26 c11 -6 19 -21 19 -35 0 -22 -4 -25 -39 -25 -32 0
-44 -6 -66 -31 -25 -31 -26 -35 -24 -148 3 -102 0 -123 -21 -176 -24 -59 -24
-66 -31 -515 -4 -250 -9 -464 -12 -475 -8 -27 -17 -223 -17 -360 0 -75 -3
-105 -10 -95 -6 9 -10 172 -10 405 -1 215 -5 523 -9 685 -8 266 -11 301 -31
360 -12 36 -30 79 -40 95 -71 115 -111 236 -90 274 9 18 19 19 122 14 97 -4
121 -2 168 15 66 25 66 25 91 12z m-161 -2046 c0 -33 -30 -32 -31 1 -2 34 -2
63 0 78 3 20 31 -53 31 -79z"/>
<path d="M1712 3835 l-34 -15 2 -107 c1 -60 -2 -149 -5 -198 -7 -83 -5 -95 19
-152 28 -66 31 -99 17 -150 -7 -23 0 -75 26 -210 l35 -178 -6 -215 c-11 -407
-34 -565 -98 -681 -26 -46 -21 -71 17 -83 97 -28 123 -42 162 -84 48 -50 63
-50 89 -1 15 29 15 43 4 133 -7 56 -14 261 -16 456 -2 195 -6 397 -9 449 -6
103 -47 355 -95 581 -38 181 -39 250 -5 331 30 70 26 92 -18 120 -38 22 -42
23 -85 4z m62 -41 c20 -20 20 -28 -4 -92 -25 -65 -26 -164 -4 -259 9 -37 18
-81 21 -97 2 -16 13 -72 24 -125 23 -113 22 -106 48 -286 17 -116 21 -195 22
-465 1 -313 9 -525 24 -623 9 -59 -10 -71 -52 -33 -15 15 -54 36 -86 48 -33
12 -61 26 -63 33 -3 6 7 36 20 67 35 78 54 158 61 258 3 47 8 108 11 135 2 28
7 147 10 265 5 214 5 215 -29 390 -24 126 -31 183 -25 205 13 49 9 88 -17 152
-23 58 -24 69 -22 243 3 145 6 183 18 191 19 12 25 11 43 -7z"/>
<path d="M2072 1851 c-70 -44 -94 -140 -52 -209 58 -94 217 -87 263 11 33 68
14 146 -45 190 -40 30 -124 34 -166 8z m123 -35 c69 -29 84 -123 28 -172 -68
-58 -183 -11 -183 75 0 58 47 108 103 110 10 1 33 -5 52 -13z"/>
<path d="M1593 1801 c-24 -11 -43 -24 -43 -30 0 -5 20 -19 44 -31 53 -27 81
-17 89 32 6 39 8 35 -23 42 -15 4 -42 -2 -67 -13z"/>
<path d="M1695 1781 c-3 -10 4 -38 15 -62 11 -24 20 -52 20 -61 0 -26 11 -22
53 21 22 22 35 44 32 53 -3 8 -30 26 -60 41 -50 24 -54 25 -60 8z"/>
<path d="M1504 1722 c-26 -22 -56 -77 -47 -86 16 -15 48 -3 93 36 44 38 47 43
32 55 -24 17 -53 15 -78 -5z"/>
<path d="M1652 1702 c-21 -17 -23 -23 -17 -68 9 -56 20 -74 46 -74 25 0 34 39
23 102 -10 58 -19 65 -52 40z"/>
<path d="M1813 1680 c-37 -34 -41 -50 -15 -73 17 -15 21 -15 60 4 44 22 52 42
32 80 -15 27 -40 23 -77 -11z"/>
<path d="M1562 1655 c-37 -40 -42 -75 -11 -75 43 0 59 18 59 65 0 25 -4 45 -8
45 -5 0 -23 -16 -40 -35z"/>
<path d="M1918 1621 c-8 -11 -29 -23 -48 -28 -19 -5 -36 -16 -38 -24 -1 -9 25
-39 58 -68 86 -75 145 -162 141 -206 -3 -36 6 -42 37 -26 9 6 29 12 44 16 18
3 30 14 34 30 7 27 -22 74 -113 186 -29 36 -53 75 -53 86 0 18 -28 53 -43 53
-3 0 -12 -9 -19 -19z m101 -166 c82 -111 93 -135 66 -135 -8 0 -15 5 -15 10 0
23 -73 124 -120 167 -50 46 -61 67 -37 76 16 6 13 9 106 -118z"/>
<path d="M1737 1623 c-4 -3 -7 -17 -7 -30 0 -16 6 -23 19 -23 26 0 34 15 21
40 -11 21 -22 25 -33 13z"/>
<path d="M1450 1611 c0 -11 48 -51 61 -51 13 0 11 14 -3 32 -16 19 -58 33 -58
19z"/>
<path d="M1390 1564 c-6 -14 -10 -36 -10 -49 0 -45 -21 -120 -50 -180 -20 -42
-26 -63 -19 -72 6 -7 8 -16 5 -21 -11 -18 25 -53 51 -50 37 4 50 30 35 70 -15
42 1 97 58 204 22 42 40 77 38 78 -2 0 -17 11 -35 24 -42 29 -61 28 -73 -4z"/>
<path d="M1573 1559 c-55 -27 -63 -38 -64 -88 0 -25 -12 -86 -26 -136 -29
-101 -34 -182 -12 -196 8 -5 28 -8 44 -7 l30 3 -3 90 c-4 102 10 186 45 263
13 29 23 61 21 70 -3 16 -5 16 -35 1z"/>
<path d="M1780 1560 c-8 -5 -25 -10 -37 -10 -29 0 -29 -10 -1 -63 27 -53 36
-199 18 -319 -11 -76 -10 -83 7 -95 11 -9 38 -13 68 -11 46 3 50 5 53 30 2 15
-6 57 -18 95 -18 55 -22 92 -22 195 1 112 -2 128 -19 144 -10 9 -19 23 -19 31
0 15 -9 16 -30 3z m60 -414 c10 -32 10 -40 -1 -47 -22 -13 -34 -5 -37 25 -5
37 7 81 17 70 5 -5 14 -26 21 -48z"/>
<path d="M1629 1537 c-1 -12 -2 -76 -4 -142 -1 -72 -8 -142 -18 -175 -14 -51
-14 -57 2 -85 14 -24 24 -30 51 -30 48 0 64 32 44 88 -17 48 -18 147 -3 235
14 76 5 102 -40 119 -29 10 -31 10 -32 -10z m41 -374 c0 -7 -7 -13 -15 -13
-15 0 -21 31 -8 43 8 8 23 -12 23 -30z"/>
<path d="M2145 1280 c-9 -10 -31 -20 -49 -22 -47 -5 -48 -43 -2 -90 23 -24 38
-50 42 -75 l6 -38 49 3 c39 3 49 8 49 22 0 10 -6 23 -14 29 -20 17 -46 97 -46
142 0 46 -11 55 -35 29z"/>
<path d="M1310 1071 l0 -121 41 0 c36 0 40 2 33 18 -13 26 -7 117 11 158 8 20
15 38 15 39 0 2 -15 5 -32 7 -18 3 -41 8 -50 13 -17 7 -18 -2 -18 -114z"/>
<path d="M1445 1094 c11 -49 11 -72 2 -159 -4 -38 -4 -75 0 -81 5 -6 24 -13
43 -16 l35 -6 0 97 c0 60 5 103 12 112 6 8 13 28 15 44 3 29 1 30 -37 31 -22
0 -49 4 -59 9 -17 8 -18 5 -11 -31z"/>
<path d="M1585 1090 c-3 -6 1 -31 11 -55 13 -36 15 -61 10 -123 -13 -140 -18
-126 41 -128 51 -2 52 -2 42 22 -14 39 -11 170 6 211 25 59 21 69 -27 69 -24
0 -50 3 -59 8 -10 4 -20 3 -24 -4z"/>
<path d="M1755 1039 c-3 -4 2 -33 10 -66 17 -68 22 -155 11 -199 l-8 -31 54 5
c29 2 55 6 57 8 2 2 -1 15 -7 29 -15 33 -15 113 0 187 7 31 10 59 7 61 -8 8
-120 14 -124 6z m75 -48 c0 -11 -4 -22 -9 -25 -11 -7 -23 22 -15 35 9 16 24
10 24 -10z"/>
<path d="M2183 1043 c-39 -5 -44 -30 -13 -58 11 -10 20 -27 20 -37 0 -31 19
-58 41 -58 19 0 20 4 14 38 -3 20 -8 55 -9 77 -4 42 -5 44 -53 38z"/>
<path d="M1310 897 c0 -25 3 -59 6 -76 6 -26 11 -31 36 -31 25 0 29 3 22 18
-8 16 -8 60 -2 107 2 16 -4 21 -29 23 -33 3 -33 3 -33 -41z"/>
<path d="M1445 743 c4 -43 9 -81 12 -85 2 -5 17 -8 32 -8 27 0 27 2 28 58 0
31 2 68 4 82 4 23 1 25 -39 28 l-44 3 7 -78z"/>
<path d="M1326 728 c7 -67 12 -84 23 -72 12 13 22 114 11 114 -4 0 -15 3 -24
6 -13 5 -14 -2 -10 -48z"/>
<path d="M1613 762 c-9 -5 -12 -41 -10 -120 l2 -113 38 3 38 3 2 115 2 115
-30 3 c-16 1 -35 -1 -42 -6z"/>
<path d="M1784 724 c-9 -4 -9 -18 0 -58 7 -30 11 -68 8 -86 -4 -29 -2 -32 15
-28 11 3 27 2 35 -3 13 -7 16 0 14 49 0 31 3 74 8 95 l8 37 -38 -1 c-22 0 -44
-3 -50 -5z"/>
<path d="M1457 633 c-6 -11 7 -121 16 -129 3 -4 13 -4 21 -1 11 4 14 21 13 69
-2 56 -4 63 -24 66 -11 2 -23 0 -26 -5z"/>
<path d="M2204 562 c-54 -34 -74 -69 -74 -127 0 -121 118 -191 222 -133 45 26
78 80 78 129 0 38 -32 97 -67 123 -39 29 -120 32 -159 8z m144 -55 c83 -84 -3
-218 -111 -173 -64 26 -86 96 -50 157 32 53 115 62 161 16z"/>
<path d="M1803 532 c-7 -5 -16 -34 -19 -65 -5 -47 -3 -58 10 -63 28 -11 47 15
40 54 -5 27 -3 38 11 48 31 23 -9 47 -42 26z"/>
<path d="M1618 509 c-14 -8 -15 -15 -7 -36 5 -14 7 -34 4 -44 -9 -29 4 -59 26
-59 20 0 21 3 25 60 1 19 5 47 9 63 7 24 5 27 -16 27 -13 0 -32 -5 -41 -11z"/>
</g>
</svg>
