<?xml version="1.0" standalone="no"?>
<!DOCTYPE svg PUBLIC "-//W3C//DTD SVG 20010904//EN"
 "http://www.w3.org/TR/2001/REC-SVG-20010904/DTD/svg10.dtd">
<svg version="1.0" xmlns="http://www.w3.org/2000/svg"
 width="300.000000pt" height="317.000000pt" viewBox="0 0 300.000000 317.000000"
 preserveAspectRatio="xMidYMid meet">
<metadata>
Created by potrace 1.10, written by Peter Selinger 2001-2011
</metadata>
<g transform="translate(0.000000,317.000000) scale(0.100000,-0.100000)"
fill="#000000" stroke="none">
<path d="M0 2950 c0 -7 507 -10 1500 -10 993 0 1500 3 1500 10 0 7 -507 10
-1500 10 -993 0 -1500 -3 -1500 -10z"/>
<path d="M2030 2653 c-97 -37 -135 -160 -75 -239 65 -85 194 -82 252 5 30 44
31 122 3 168 -33 54 -123 87 -180 66z m85 -43 c7 0 27 -13 44 -29 26 -24 31
-37 31 -74 0 -56 -27 -92 -80 -108 -47 -14 -90 0 -120 39 -27 34 -27 101 1
136 20 26 73 48 97 40 8 -2 20 -4 27 -4z"/>
<path d="M1195 2575 c-5 -2 -55 -18 -110 -35 -132 -43 -241 -99 -296 -152 -77
-75 -188 -326 -191 -430 -1 -55 39 -158 53 -136 20 32 20 -8 0 -67 -25 -78
-25 -75 -5 -75 9 0 32 -16 51 -35 l35 -35 53 41 c124 93 253 103 346 25 24
-20 34 -23 59 -16 36 10 49 17 77 43 l23 20 24 -25 c14 -13 44 -30 66 -37 40
-12 42 -11 80 23 44 39 89 51 160 43 58 -7 149 -48 194 -88 l33 -28 28 29 c15
15 38 31 51 34 29 8 30 21 4 77 -11 24 -20 58 -19 74 0 27 1 28 13 12 12 -16
16 -12 36 35 32 75 24 143 -34 287 -83 204 -111 238 -253 310 -146 73 -281
111 -391 110 -42 0 -81 -2 -87 -4z m209 -50 c98 -26 257 -92 322 -135 71 -46
121 -116 180 -250 33 -75 38 -95 38 -167 1 -75 -1 -84 -22 -99 -35 -24 -43
-55 -30 -118 11 -51 10 -57 -7 -71 -25 -18 -49 -19 -64 -1 -26 31 -145 77
-212 83 -58 5 -73 2 -120 -20 -30 -15 -63 -33 -75 -42 -19 -14 -25 -13 -74 12
l-53 26 -38 -21 c-51 -29 -69 -28 -131 11 -48 29 -61 32 -128 32 -84 -1 -156
-26 -223 -78 l-38 -29 -25 23 c-23 21 -24 28 -18 77 6 49 4 57 -25 98 -45 61
-47 102 -11 204 17 47 32 90 33 95 11 37 73 138 111 182 35 38 69 62 138 96
202 99 341 126 472 92z"/>
<path d="M1872 2313 c2 -5 20 -40 41 -80 74 -143 107 -287 78 -341 -21 -40
-14 -52 30 -52 l41 0 -7 57 c-9 73 -49 212 -76 266 -23 44 -99 157 -106 157
-3 0 -3 -3 -1 -7z"/>
<path d="M660 2254 c-64 -85 -88 -139 -115 -264 -14 -63 -28 -123 -31 -132 -5
-15 1 -18 40 -18 47 0 59 13 35 37 -35 35 9 226 83 361 22 39 38 72 35 72 -2
0 -24 -25 -47 -56z"/>
<path d="M504 1784 c-10 -70 2 -173 32 -279 15 -52 29 -93 31 -91 2 1 5 47 7
100 2 81 0 98 -13 106 -13 7 -16 26 -15 102 0 85 -6 107 -28 108 -4 0 -10 -21
-14 -46z"/>
<path d="M589 1823 c-10 -2 -19 -19 -23 -41 -15 -95 1 -187 23 -129 6 16 11
33 11 38 0 6 9 29 20 52 17 35 19 46 9 65 -7 12 -15 21 -18 21 -3 -1 -13 -3
-22 -6z"/>
<path d="M1950 1814 c-11 -13 -12 -21 -1 -47 8 -18 22 -54 32 -82 9 -27 21
-50 26 -50 10 0 16 156 6 171 -14 21 -49 25 -63 8z"/>
<path d="M2044 1824 c-7 -3 -9 -35 -6 -90 4 -75 2 -88 -16 -107 -18 -20 -19
-31 -13 -117 l6 -95 29 83 c32 96 42 172 31 266 -6 65 -9 69 -31 60z"/>
<path d="M1255 1667 l-31 -22 4 -85 c2 -47 -1 -110 -6 -140 l-10 -55 20 24
c10 14 22 37 25 53 6 31 27 53 42 43 6 -3 20 -27 31 -52 11 -25 22 -44 25 -41
2 2 0 31 -5 64 -6 32 -7 88 -4 123 6 61 6 64 -22 87 -34 28 -31 28 -69 1z m65
-96 l0 -58 -30 5 c-27 4 -30 8 -31 41 -3 72 11 97 42 80 15 -8 19 -21 19 -68z"/>
<path d="M615 1659 c-4 -6 -12 -78 -17 -162 -10 -140 -13 -154 -39 -196 -16
-25 -29 -54 -29 -65 0 -31 70 -89 137 -113 l61 -21 7 45 c10 65 26 84 105 128
39 21 69 39 67 41 -1 1 -25 -3 -54 -9 -43 -9 -55 -8 -77 6 -72 48 -108 175
-71 248 l18 33 -44 38 c-47 41 -54 44 -64 27z m55 -66 c-1 -10 -7 -29 -15 -43
l-14 -25 -1 36 c0 20 3 39 7 42 12 13 23 7 23 -10z m-22 -140 c-1 -32 39 -110
76 -146 l36 -36 -31 -58 c-34 -65 -41 -66 -104 -24 -49 33 -53 55 -21 118 17
32 26 67 27 106 1 31 6 57 10 57 4 0 7 -8 7 -17z"/>
<path d="M1906 1640 c-21 -16 -41 -32 -43 -34 -3 -3 5 -30 18 -60 20 -50 21
-60 10 -109 -8 -36 -24 -69 -48 -97 l-37 -42 -55 5 c-62 7 -61 6 27 -44 56
-31 82 -71 82 -124 0 -32 11 -31 86 4 109 51 125 87 75 166 -25 39 -30 59 -35
143 -12 176 -18 222 -30 222 -6 0 -28 -14 -50 -30z m31 -81 l2 -44 -14 30
c-18 38 -19 68 -2 63 7 -3 13 -24 14 -49z m46 -268 c24 -44 24 -50 11 -70 -15
-20 -83 -61 -103 -61 -5 0 -12 12 -15 26 -4 14 -16 39 -28 55 l-21 28 31 32
c17 17 44 56 59 85 l28 54 6 -50 c4 -27 18 -72 32 -99z"/>
<path d="M1175 1578 c0 -48 -7 -77 -27 -121 -27 -57 -28 -58 -125 -103 -105
-48 -248 -137 -256 -158 -3 -8 -8 -33 -12 -57 l-7 -44 44 -13 c60 -19 98 -69
98 -133 0 -27 5 -51 13 -56 6 -4 55 -11 107 -14 52 -4 118 -12 145 -17 28 -5
55 -7 60 -3 14 8 138 9 150 0 6 -3 35 -2 65 3 30 5 100 13 155 18 55 4 101 8
103 9 1 1 2 24 2 51 0 83 31 119 133 153 17 7 20 29 8 80 -8 35 -154 135 -254
173 -117 45 -167 114 -167 230 0 57 -2 64 -20 64 -19 0 -20 -7 -20 -124 0
-114 3 -132 31 -208 23 -63 31 -101 32 -162 2 -78 2 -79 -25 -87 -15 -4 -48
-2 -74 3 -34 8 -63 7 -103 -2 -53 -12 -56 -11 -74 11 -24 30 -20 76 18 204 23
76 27 111 28 225 2 113 0 135 -13 138 -13 2 -15 -9 -15 -60z m382 -268 c72
-27 171 -77 211 -107 49 -37 44 -65 -21 -101 -62 -35 -84 -65 -96 -128 -5 -25
-11 -47 -13 -50 -20 -19 -472 -38 -518 -21 -14 5 -58 10 -98 12 -41 2 -76 6
-79 9 -3 3 -9 26 -14 52 -11 58 -44 102 -95 129 -47 25 -57 62 -24 93 21 20
163 92 234 119 23 9 59 29 80 46 46 35 46 48 0 -126 -26 -101 -27 -111 -13
-149 7 -23 26 -50 42 -62 25 -18 32 -19 85 -8 39 8 70 8 100 2 56 -13 86 -5
118 33 25 29 26 35 20 104 -4 40 -18 104 -31 142 -36 100 -34 110 17 67 23
-20 65 -45 95 -56z"/>
<path d="M666 1049 c31 -81 42 -146 50 -304 3 -71 12 -143 19 -160 35 -87 210
-288 283 -328 65 -35 160 -50 219 -35 30 7 60 7 102 0 91 -16 172 -1 238 44
67 46 229 233 259 299 14 32 25 79 28 130 17 231 33 330 61 385 16 31 8 38
-23 20 -9 -5 -34 -16 -54 -24 -21 -8 -38 -22 -38 -30 0 -25 -51 -178 -76 -229
-13 -27 -24 -66 -24 -87 0 -44 -16 -63 -65 -81 -19 -7 -35 -17 -35 -21 0 -4
-6 -8 -14 -8 -7 0 -19 -7 -26 -15 -7 -8 -23 -15 -37 -15 -13 0 -34 -5 -45 -11
-15 -8 -26 -8 -44 1 -17 9 -44 10 -109 3 -47 -5 -91 -5 -98 -1 -19 12 -92 9
-105 -4 -10 -10 -17 -10 -32 0 -11 6 -33 12 -49 12 -16 0 -34 6 -40 14 -7 8
-33 24 -59 36 -68 32 -82 47 -82 90 0 21 -13 67 -30 103 -16 37 -39 101 -51
144 -23 85 -33 103 -58 103 -9 0 -29 7 -45 15 -15 8 -32 15 -36 15 -5 0 2 -28
16 -61z m94 -126 c7 -21 25 -65 41 -98 15 -33 32 -79 38 -103 12 -55 27 -71
111 -120 87 -50 152 -68 201 -54 24 6 55 6 90 0 33 -6 66 -6 90 0 21 5 58 8
81 5 89 -8 113 -4 196 39 102 52 118 67 132 121 6 23 26 78 45 122 18 44 36
90 40 103 3 12 11 22 16 22 5 0 7 -10 4 -22 -2 -13 -9 -84 -15 -158 -6 -74
-15 -152 -21 -172 -11 -43 -60 -110 -158 -219 -107 -117 -180 -145 -324 -125
-36 5 -73 4 -100 -2 -58 -15 -152 5 -208 44 -62 43 -198 200 -229 267 -23 47
-29 77 -34 165 -4 59 -9 133 -12 165 -7 66 -1 73 16 20z"/>
<path d="M450 920 c-20 -12 -46 -37 -59 -56 -52 -75 -5 -201 82 -225 80 -21
142 5 185 77 55 94 -9 208 -123 220 -39 4 -57 0 -85 -16z m107 -30 c8 0 28
-13 44 -29 23 -24 29 -38 29 -74 0 -81 -65 -131 -141 -108 -67 20 -98 96 -65
159 18 35 75 65 104 56 8 -2 20 -4 29 -4z"/>
<path d="M2020 929 c-14 -5 -40 -26 -57 -45 -32 -34 -42 -76 -34 -144 6 -48
91 -110 154 -110 43 0 105 35 130 74 24 36 22 122 -3 163 -35 59 -125 88 -190
62z m95 -39 c7 0 27 -13 44 -29 79 -74 0 -213 -105 -187 -15 4 -39 20 -55 36
-56 55 -31 157 44 179 18 5 38 7 45 5 8 -2 20 -4 27 -4z"/>
<path d="M880 843 c0 -44 13 -69 29 -59 6 4 11 0 11 -8 0 -9 5 -16 10 -16 6 0
10 20 10 44 0 25 -4 48 -10 51 -6 3 -10 -5 -10 -19 0 -14 -5 -28 -11 -32 -8
-4 -9 0 -4 15 7 24 -2 61 -16 61 -5 0 -9 -17 -9 -37z"/>
<path d="M1680 855 c0 -14 -4 -25 -10 -25 -5 0 -10 7 -10 16 0 8 -4 12 -10 9
-5 -3 -10 -24 -10 -45 0 -21 5 -42 10 -45 10 -6 14 6 11 38 -1 9 3 17 8 17 6
0 11 -10 11 -22 0 -19 2 -20 10 -8 13 20 13 90 0 90 -5 0 -10 -11 -10 -25z"/>
<path d="M951 813 c0 -28 4 -55 9 -58 12 -7 12 15 1 70 l-9 40 -1 -52z"/>
<path d="M980 802 c0 -41 5 -63 15 -72 20 -17 27 3 23 71 -2 42 -7 55 -20 57
-16 3 -18 -5 -18 -56z"/>
<path d="M1044 846 c-3 -7 -4 -40 -2 -72 3 -51 6 -59 24 -62 19 -3 23 5 33 59
12 57 11 64 -5 76 -23 17 -43 17 -50 -1z"/>
<path d="M1486 847 c-16 -12 -17 -19 -5 -76 10 -54 14 -62 33 -59 19 3 21 10
24 76 3 64 1 72 -16 72 -10 0 -26 -6 -36 -13z"/>
<path d="M1567 853 c-9 -8 -9 -118 0 -126 3 -4 12 -2 20 4 18 16 18 129 0 129
-8 0 -17 -3 -20 -7z"/>
<path d="M1619 810 c-5 -55 -4 -68 7 -58 3 3 4 30 2 59 l-3 54 -6 -55z"/>
<path d="M1131 802 c-6 -21 -14 -53 -17 -71 -7 -31 -6 -32 22 -29 26 3 29 8
39 58 13 65 10 80 -15 80 -14 0 -22 -11 -29 -38z"/>
<path d="M1217 833 c-3 -5 -11 -37 -18 -71 -14 -73 -8 -82 49 -82 l32 0 0 80
0 80 -29 0 c-17 0 -32 -3 -34 -7z"/>
<path d="M1300 760 l0 -80 33 0 c51 0 61 12 54 62 -11 77 -23 98 -57 98 l-30
0 0 -80z"/>
<path d="M1397 833 c-3 -4 1 -35 7 -68 11 -54 15 -60 39 -63 22 -3 27 1 27 20
0 49 -26 113 -48 116 -11 2 -22 0 -25 -5z"/>
<path d="M901 728 c-10 -25 1 -44 18 -34 14 9 14 56 1 56 -6 0 -15 -10 -19
-22z"/>
<path d="M1654 728 c3 -13 6 -26 6 -30 0 -12 30 -9 30 3 0 18 -20 49 -32 49
-6 0 -8 -9 -4 -22z"/>
<path d="M936 704 c-8 -29 5 -50 23 -40 6 4 11 20 11 37 0 37 -25 39 -34 3z"/>
<path d="M1610 708 c0 -34 16 -56 30 -42 17 17 8 58 -12 62 -13 3 -18 -3 -18
-20z"/>
<path d="M980 675 c0 -39 14 -47 24 -12 9 35 7 47 -9 47 -10 0 -15 -11 -15
-35z"/>
<path d="M1574 694 c3 -9 6 -24 6 -35 0 -10 5 -19 10 -19 6 0 10 16 10 35 0
25 -4 35 -16 35 -11 0 -14 -5 -10 -16z"/>
<path d="M1026 684 c-3 -9 -6 -27 -6 -40 0 -19 5 -24 25 -24 22 0 25 4 25 34
0 22 -6 36 -16 40 -21 8 -21 8 -28 -10z"/>
<path d="M1523 693 c-7 -2 -13 -20 -13 -39 0 -30 3 -34 25 -34 23 0 25 4 25
40 0 39 -7 46 -37 33z"/>
<path d="M1090 657 c0 -43 23 -77 41 -60 16 16 14 74 -3 84 -26 17 -38 9 -38
-24z"/>
<path d="M1453 683 c-19 -7 -17 -82 3 -90 21 -8 34 14 34 60 0 36 -8 42 -37
30z"/>
<path d="M1160 659 c0 -11 5 -29 11 -40 8 -16 13 -18 25 -8 17 14 18 41 2 57
-19 19 -38 14 -38 -9z"/>
<path d="M1388 669 c-22 -12 -23 -42 -4 -58 12 -10 17 -8 25 8 13 23 15 61 4
61 -5 0 -16 -5 -25 -11z"/>
<path d="M1230 635 c0 -24 31 -51 44 -38 3 3 6 19 6 35 0 23 -4 28 -25 28 -20
0 -25 -5 -25 -25z"/>
<path d="M1300 631 c0 -31 21 -46 39 -28 6 6 11 21 11 34 0 18 -6 23 -25 23
-21 0 -25 -5 -25 -29z"/>
</g>
</svg>
