<?xml version="1.0" standalone="no"?>
<!DOCTYPE svg PUBLIC "-//W3C//DTD SVG 20010904//EN"
 "http://www.w3.org/TR/2001/REC-SVG-20010904/DTD/svg10.dtd">
<svg version="1.0" xmlns="http://www.w3.org/2000/svg"
 width="300.000000pt" height="356.000000pt" viewBox="0 0 300.000000 356.000000"
 preserveAspectRatio="xMidYMid meet">
<metadata>
Created by potrace 1.10, written by Peter Selinger 2001-2011
</metadata>
<g transform="translate(0.000000,356.000000) scale(0.100000,-0.100000)"
fill="#000000" stroke="none">
<path d="M1827 3404 c-3 -3 -20 -9 -37 -13 -49 -10 -33 -25 42 -38 135 -22
185 -99 143 -217 -15 -44 -13 -42 -129 -106 -85 -48 -100 -68 -70 -101 25 -28
91 -24 182 11 149 57 189 106 178 212 -11 105 -46 146 -178 206 -103 48 -122
54 -131 46z m273 -258 c0 -72 -24 -106 -101 -144 -75 -36 -123 -52 -155 -52
-38 0 -28 18 26 45 61 31 116 78 137 118 8 17 17 58 19 91 2 34 4 63 4 66 1 3
16 -13 35 -34 30 -34 35 -46 35 -90z"/>
<path d="M1025 3362 c-105 -48 -106 -49 -148 -105 -34 -44 -37 -54 -37 -113 0
-105 34 -148 160 -198 114 -46 181 -47 202 -1 15 33 1 48 -76 85 -106 51 -136
91 -136 180 0 41 5 55 31 85 33 37 104 65 165 65 33 0 52 14 36 24 -5 3 -34 8
-63 10 -47 4 -65 0 -134 -32z m-52 -258 c17 -32 90 -92 140 -115 28 -13 37
-39 14 -39 -20 0 -117 35 -164 58 -103 53 -122 166 -40 242 l22 21 6 -68 c3
-37 13 -82 22 -99z"/>
<path d="M772 3169 c-56 -41 -82 -93 -82 -162 0 -44 8 -71 41 -136 44 -88 73
-117 213 -210 65 -43 73 -46 137 -46 76 0 127 26 121 61 -5 26 -18 32 -82 39
-30 3 -65 10 -77 15 -31 13 -242 210 -259 242 -22 43 -18 112 9 145 25 29 43
83 29 83 -4 0 -27 -14 -50 -31z m19 -269 c3 -3 50 -45 104 -95 120 -111 121
-111 181 -126 l49 -13 -32 -8 c-41 -11 -80 5 -176 71 -94 65 -119 92 -156 168
-38 76 -39 84 -4 41 15 -18 31 -35 34 -38z"/>
<path d="M2150 3176 c0 -13 7 -29 16 -37 50 -41 56 -134 13 -186 -31 -37 -203
-193 -237 -215 -17 -11 -47 -18 -77 -18 -60 0 -98 -22 -93 -53 4 -31 53 -51
124 -52 53 0 68 5 120 37 166 103 244 194 266 315 15 85 0 130 -63 187 -58 52
-69 56 -69 22z m63 -288 c-35 -66 -82 -112 -180 -177 -71 -47 -82 -51 -133
-50 -53 1 -54 1 -20 11 74 20 119 52 235 166 66 64 121 114 123 110 2 -4 -9
-31 -25 -60z"/>
<path d="M249 3097 c-58 -39 -81 -84 -77 -145 7 -86 67 -143 151 -144 55 -1
93 17 131 65 102 128 -69 316 -205 224z m126 -31 c40 -17 65 -60 65 -112 0
-28 -8 -44 -34 -70 -103 -103 -261 41 -166 150 28 31 45 40 88 45 7 0 28 -5
47 -13z"/>
<path d="M2570 3109 c-35 -15 -59 -39 -81 -81 -24 -48 -24 -81 2 -134 56 -116
214 -118 278 -4 55 98 -12 218 -126 226 -26 2 -59 -1 -73 -7z m128 -55 c13 -9
30 -32 39 -51 13 -32 13 -40 -2 -80 -36 -95 -166 -100 -210 -8 -49 105 73 204
173 139z"/>
<path d="M1323 3045 c-32 -13 -45 -40 -57 -116 -5 -31 -1 -42 30 -81 l37 -45
45 13 c59 18 157 18 217 -1 27 -8 50 -13 50 -12 1 1 16 21 34 45 30 39 33 48
28 91 -8 71 -25 100 -64 110 -27 8 -43 6 -76 -9 -48 -22 -93 -25 -134 -9 -61
24 -80 26 -110 14z m87 -50 c55 -19 111 -19 158 0 49 21 77 13 91 -26 15 -45
14 -63 -8 -91 -19 -24 -22 -25 -165 -24 -133 1 -146 3 -160 21 -20 26 -20 85
0 113 18 26 28 27 84 7z"/>
<path d="M633 2966 c-37 -41 -47 -83 -41 -164 8 -87 43 -168 102 -230 102
-109 233 -192 298 -192 48 1 156 26 173 40 8 7 15 25 15 41 0 43 -32 59 -118
59 -67 0 -81 4 -155 42 -90 47 -198 141 -228 199 -21 43 -25 124 -8 163 7 15
8 34 2 51 l-9 27 -31 -36z m261 -442 c75 -38 97 -44 150 -44 109 0 116 -30 11
-50 -58 -11 -71 -10 -110 5 -89 34 -252 173 -273 233 -11 31 -7 29 61 -33 47
-43 103 -82 161 -111z"/>
<path d="M2304 2954 c4 -27 10 -65 13 -85 2 -19 0 -55 -7 -79 -17 -64 -134
-176 -241 -229 -74 -37 -88 -41 -159 -41 -62 0 -80 -4 -93 -18 -21 -23 -22
-65 -3 -82 19 -15 120 -39 166 -40 70 0 184 72 301 191 70 71 103 155 104 266
0 63 -3 76 -30 114 -44 63 -60 63 -51 3z m-7 -301 c-36 -68 -223 -216 -291
-228 -44 -9 -151 17 -151 35 0 12 19 16 80 20 68 5 91 12 153 45 41 21 105 68
145 106 73 68 90 74 64 22z"/>
<path d="M539 2777 c-57 -71 -68 -130 -45 -230 39 -168 142 -278 354 -380 73
-35 97 -42 147 -42 72 1 161 29 175 56 14 26 -3 57 -36 65 -14 4 -50 1 -79 -6
-40 -10 -60 -10 -87 -1 -48 16 -161 93 -231 157 -32 30 -62 54 -67 54 -13 0
-96 131 -104 163 -4 16 -2 55 5 87 7 35 8 68 3 84 l-9 26 -26 -33z m162 -404
c179 -151 269 -195 355 -176 24 6 47 7 49 2 8 -11 -4 -16 -72 -28 -69 -13 -85
-9 -228 63 -103 51 -202 147 -245 237 -45 96 -38 116 14 38 26 -38 78 -94 127
-136z"/>
<path d="M1371 2797 l-44 -10 7 -111 c4 -73 1 -165 -9 -266 -28 -284 -20 -365
46 -512 34 -74 34 -74 64 -66 17 5 55 6 85 3 l55 -6 27 63 c71 164 79 236 52
488 -11 96 -18 204 -16 240 2 36 4 87 5 114 l2 50 -50 13 c-58 15 -161 15
-224 0z m202 -26 c34 -13 39 -34 27 -102 -9 -47 -7 -96 10 -245 30 -282 25
-360 -32 -485 -29 -65 -31 -67 -75 -73 -24 -3 -53 -1 -63 4 -10 5 -33 45 -50
87 -43 101 -48 202 -25 453 10 110 14 212 10 252 -8 79 -2 105 28 111 43 8
146 7 170 -2z"/>
<path d="M2398 2770 c-2 -22 0 -47 4 -57 14 -37 8 -107 -14 -152 -42 -89 -274
-284 -381 -322 -30 -10 -46 -11 -82 -1 -25 7 -56 12 -70 12 -44 0 -62 -70 -23
-91 33 -18 118 -39 157 -39 45 0 224 82 297 136 128 96 204 234 204 373 0 62
-3 73 -37 125 -21 31 -40 56 -44 56 -4 0 -9 -18 -11 -40z m26 -282 c-67 -134
-160 -217 -326 -290 -92 -40 -93 -40 -153 -28 -83 16 -97 33 -20 25 73 -8 119
7 207 66 120 81 231 184 280 261 41 63 50 40 12 -34z"/>
<path d="M2498 2545 c-2 -19 0 -41 4 -48 4 -6 8 -37 8 -67 0 -72 -31 -136
-106 -222 -33 -36 -80 -91 -107 -121 -60 -70 -174 -131 -265 -142 -50 -6 -64
-11 -77 -32 -37 -55 -2 -86 113 -98 l57 -7 115 76 c128 85 193 149 223 216 11
25 30 59 43 77 51 68 66 121 61 213 -6 121 -59 239 -69 155z m-2 -307 c-15
-24 -38 -66 -52 -94 -37 -78 -97 -139 -210 -215 -93 -62 -108 -69 -153 -69
-58 0 -81 7 -81 25 0 9 18 16 48 20 85 13 186 68 260 142 73 73 182 195 195
219 4 8 10 14 14 14 3 0 -7 -19 -21 -42z"/>
<path d="M450 2555 c-22 -27 -40 -108 -40 -187 0 -83 13 -126 53 -180 14 -18
34 -53 44 -78 30 -67 94 -132 201 -206 141 -97 148 -99 227 -86 77 13 95 24
95 62 0 38 -25 55 -98 68 -101 18 -185 65 -256 145 -33 38 -85 96 -115 129
-85 96 -106 166 -86 289 8 49 -4 70 -25 44z m22 -286 c5 -16 145 -175 207
-236 59 -59 148 -106 232 -125 30 -6 58 -15 64 -20 17 -15 -17 -28 -75 -28
-50 0 -61 5 -152 65 -113 76 -170 131 -200 195 -11 25 -38 71 -60 103 -21 31
-34 57 -29 57 5 0 11 -5 13 -11z"/>
<path d="M362 2264 c-41 -49 -66 -131 -57 -185 15 -86 205 -394 283 -459 77
-64 169 -72 314 -29 74 22 97 44 78 79 -9 17 -21 20 -90 20 -153 0 -272 76
-394 249 -94 135 -118 201 -96 263 8 22 9 44 3 67 l-9 34 -32 -39z m111 -361
c32 -45 82 -104 112 -131 59 -55 157 -108 211 -117 19 -3 51 -8 72 -12 l37 -6
-40 -13 c-54 -17 -168 -17 -208 0 -48 20 -89 67 -193 224 -94 140 -114 182
-114 232 0 20 7 12 33 -35 18 -33 58 -97 90 -142z"/>
<path d="M2572 2268 c-6 -23 -4 -43 5 -65 24 -59 -7 -139 -108 -280 -72 -99
-141 -163 -217 -200 -48 -23 -71 -28 -151 -29 -98 -2 -114 -9 -109 -49 2 -12
18 -27 39 -38 54 -26 177 -50 226 -43 61 8 136 49 170 93 70 91 163 234 202
313 40 80 43 89 38 152 -4 66 -34 137 -71 167 -13 11 -16 8 -24 -21z m47 -226
c-7 -37 -34 -86 -92 -172 -45 -67 -86 -129 -92 -138 -5 -9 -18 -25 -27 -36
-10 -11 -18 -23 -18 -26 0 -4 -23 -19 -51 -35 -47 -25 -57 -27 -140 -23 -114
5 -133 21 -47 37 91 18 175 63 246 132 68 66 155 185 196 267 15 30 29 52 32
49 2 -2 -1 -27 -7 -55z"/>
<path d="M302 1988 c-19 -23 -42 -138 -42 -211 0 -97 37 -201 112 -312 110
-164 162 -205 261 -205 83 0 281 75 292 111 20 61 -31 82 -120 51 -82 -30
-156 -29 -210 2 -62 37 -171 169 -216 261 -40 82 -50 142 -35 211 9 39 -25
112 -42 92z m50 -343 c44 -86 177 -233 240 -266 50 -26 151 -26 217 1 29 11
53 15 56 10 16 -26 -175 -94 -246 -88 -71 7 -111 39 -194 155 -92 128 -101
144 -113 213 -9 49 -9 53 5 35 8 -11 24 -38 35 -60z"/>
<path d="M2649 1967 c-8 -19 -14 -68 -14 -122 0 -76 -4 -98 -26 -145 -45 -95
-164 -239 -232 -280 -44 -27 -125 -26 -205 2 -58 20 -66 21 -90 7 -20 -11 -27
-23 -27 -44 0 -25 7 -33 54 -56 138 -69 250 -86 328 -48 87 42 225 244 268
393 20 67 15 180 -11 266 -18 62 -28 68 -45 27z m11 -327 c-12 -45 -122 -214
-178 -272 -43 -45 -88 -68 -134 -68 -62 0 -238 61 -238 82 0 12 22 10 70 -7
62 -22 155 -19 207 6 56 27 161 142 226 248 53 85 68 89 47 11z"/>
<path d="M1426 1813 c-28 -5 -28 -5 -22 -61 9 -77 33 -129 61 -136 31 -8 71 8
85 34 10 19 31 151 25 158 -6 6 -119 10 -149 5z m102 -63 c5 -69 -47 -119 -68
-65 -12 30 -13 88 -3 99 4 4 21 6 38 4 27 -3 30 -7 33 -38z"/>
<path d="M249 1625 c-20 -47 -24 -269 -6 -336 17 -65 152 -279 193 -306 16
-10 44 -16 73 -16 55 1 228 66 254 95 26 30 22 66 -9 80 -21 10 -37 8 -97 -12
-106 -37 -141 -34 -185 16 -48 53 -124 161 -141 199 -7 16 -15 61 -18 100 -3
38 -16 101 -29 140 l-23 70 -12 -30z m138 -437 c96 -130 142 -147 275 -101 46
16 66 14 54 -5 -11 -18 -141 -64 -196 -69 -63 -6 -63 -6 -155 123 -58 82 -73
114 -81 165 l-6 44 22 -35 c12 -19 51 -74 87 -122z"/>
<path d="M2701 1608 c-7 -24 -17 -47 -21 -53 -4 -5 -11 -46 -14 -90 -10 -114
-20 -138 -103 -247 -95 -126 -112 -133 -235 -91 -99 34 -128 31 -128 -15 0
-41 35 -72 119 -105 186 -72 209 -65 317 98 42 64 84 135 92 158 20 58 28 235
12 306 -18 82 -25 89 -39 39z m-11 -329 c-7 -28 -30 -74 -54 -107 -23 -31 -52
-74 -65 -95 -30 -49 -57 -67 -103 -67 -39 0 -155 39 -196 66 -43 28 -12 32 59
7 84 -29 133 -25 181 15 37 31 143 172 167 220 20 44 26 24 11 -39z"/>
<path d="M1421 1418 c-49 -33 -72 -69 -78 -121 -5 -37 -1 -54 20 -90 34 -58
81 -81 152 -75 116 10 179 123 122 222 -31 56 -67 79 -129 84 -44 3 -59 0 -87
-20z m147 -44 c55 -36 62 -121 14 -169 -91 -91 -249 17 -185 127 36 63 111 81
171 42z"/>
<path d="M241 1166 c-16 -66 -14 -223 5 -286 9 -32 17 -98 18 -164 2 -124 29
-227 69 -263 40 -37 124 -75 149 -68 87 27 208 134 208 184 0 55 -50 51 -147
-11 -73 -47 -122 -61 -155 -44 -31 16 -64 77 -78 149 -6 33 -19 71 -27 84 -27
41 -7 35 22 -7 15 -22 48 -58 72 -81 l45 -41 71 4 c63 3 80 8 130 41 84 54
129 136 91 164 -23 17 -60 12 -161 -23 -39 -13 -83 -24 -97 -24 -89 0 -151
109 -163 285 -4 58 -12 100 -23 118 l-17 28 -12 -45z m150 -411 c40 -21 89
-18 171 10 39 14 80 25 90 25 29 0 21 -35 -14 -66 -78 -65 -169 -82 -229 -41
-42 28 -99 102 -99 129 0 17 4 15 26 -12 15 -17 39 -37 55 -45z m239 -209 c0
-18 -71 -79 -115 -100 -18 -9 -44 -16 -57 -16 -27 0 -74 29 -48 30 37 1 92 23
146 60 65 44 74 47 74 26z"/>
<path d="M2702 1173 c-6 -16 -13 -64 -17 -108 -9 -111 -38 -197 -84 -246 -45
-46 -76 -50 -166 -19 -86 29 -157 36 -174 17 -32 -39 41 -136 133 -178 26 -12
64 -19 105 -19 64 0 65 0 110 48 116 120 168 314 129 481 -13 58 -21 63 -36
24z m-54 -396 c-18 -34 -72 -93 -96 -106 -28 -15 -96 -14 -136 3 -41 17 -106
73 -106 92 0 19 22 18 120 -7 103 -27 145 -22 192 24 36 35 47 32 26 -6z"/>
<path d="M2696 758 c-9 -18 -25 -68 -35 -110 -21 -81 -53 -137 -80 -139 -52
-4 -83 7 -141 47 -52 35 -74 44 -108 44 -27 0 -45 -5 -48 -14 -15 -39 82 -141
174 -184 l56 -25 64 34 c78 42 84 48 111 132 20 64 41 247 28 247 -3 0 -13
-15 -21 -32z m-266 -244 c57 -36 123 -59 140 -49 6 3 10 2 10 -3 0 -12 -46
-32 -74 -32 -36 0 -156 85 -156 110 0 18 24 10 80 -26z"/>
<path d="M316 418 c25 -138 142 -214 244 -159 63 33 128 137 102 163 -7 7 -20
-4 -42 -40 -35 -57 -93 -92 -152 -92 -40 0 -50 9 -67 61 -7 21 -28 49 -51 68
l-40 32 6 -33z"/>
<path d="M2629 423 c-15 -9 -38 -40 -53 -69 l-26 -54 -48 0 c-60 0 -103 23
-142 78 -16 23 -35 42 -40 42 -19 0 -10 -50 15 -88 39 -59 81 -85 145 -90 54
-4 57 -3 106 42 37 33 55 57 64 90 16 58 11 69 -21 49z"/>
<path d="M375 246 c9 -53 18 -75 55 -125 23 -31 35 -40 43 -32 13 13 -16 115
-39 134 -8 6 -26 23 -41 37 l-25 25 7 -39z"/>
<path d="M2559 238 c-25 -23 -42 -51 -53 -88 -17 -57 -10 -84 17 -62 24 20 79
138 75 161 -3 21 -5 21 -39 -11z"/>
</g>
</svg>
